  0
SECTION
  2
HEADER
  9
$ACADVER
  1
AC1015
  9
$ACADMAINTVER
 70
     6
  9
$DWGCODEPAGE
  3
ANSI_1252
  9
$INSBASE
 10
0.0
 20
0.0
 30
0.0
  9
$EXTMIN
 10
-118.1078194988
 20
-94.7602943831
 30
0.0
  9
$EXTMAX
 10
118.1078194988
 20
94.7602943831
 30
0.0
  9
$LIMMIN
 10
0.0
 20
0.0
  9
$LIMMAX
 10
420.0
 20
297.0
  9
$ORTHOMODE
 70
     0
  9
$REGENMODE
 70
     1
  9
$FILLMODE
 70
     1
  9
$QTEXTMODE
 70
     0
  9
$MIRRTEXT
 70
     1
  9
$LTSCALE
 40
1.0
  9
$ATTMODE
 70
     1
  9
$TEXTSIZE
 40
0.003175
  9
$TRACEWID
 40
1.0
  9
$TEXTSTYLE
  7
Standard
  9
$CLAYER
  8
0
  9
$CELTYPE
  6
ByLayer
  9
$CECOLOR
 62
   256
  9
$CELTSCALE
 40
1.0
  9
$DISPSILH
 70
     0
  9
$DIMSCALE
 40
1.0
  9
$DIMASZ
 40
0.003302
  9
$DIMEXO
 40
0.00127
  9
$DIMDLI
 40
3.75
  9
$DIMRND
 40
0.0
  9
$DIMDLE
 40
0.0
  9
$DIMEXE
 40
0.003175
  9
$DIMTP
 40
0.0
  9
$DIMTM
 40
0.0
  9
$DIMTXT
 40
0.003175
  9
$DIMCEN
 40
2.5
  9
$DIMTSZ
 40
0.0
  9
$DIMTOL
 70
     0
  9
$DIMLIM
 70
     0
  9
$DIMTIH
 70
     1
  9
$DIMTOH
 70
     1
  9
$DIMSE1
 70
     0
  9
$DIMSE2
 70
     0
  9
$DIMTAD
 70
     0
  9
$DIMZIN
 70
     0
  9
$DIMBLK
  1

  9
$DIMASO
 70
     1
  9
$DIMSHO
 70
     1
  9
$DIMPOST
  1

  9
$DIMAPOST
  1

  9
$DIMALT
 70
     0
  9
$DIMALTD
 70
     3
  9
$DIMALTF
 40
39.3700787402
  9
$DIMLFAC
 40
1.0
  9
$DIMTOFL
 70
     1
  9
$DIMTVP
 40
0.0
  9
$DIMTIX
 70
     0
  9
$DIMSOXD
 70
     0
  9
$DIMSAH
 70
     0
  9
$DIMBLK1
  1

  9
$DIMBLK2
  1

  9
$DIMSTYLE
  2
ISO-25
  9
$DIMCLRD
 70
     0
  9
$DIMCLRE
 70
     0
  9
$DIMCLRT
 70
     0
  9
$DIMTFAC
 40
1.0
  9
$DIMGAP
 40
0.001524
  9
$DIMJUST
 70
     0
  9
$DIMSD1
 70
     0
  9
$DIMSD2
 70
     0
  9
$DIMTOLJ
 70
     0
  9
$DIMTZIN
 70
     0
  9
$DIMALTZ
 70
     0
  9
$DIMALTTZ
 70
     0
  9
$DIMUPT
 70
     0
  9
$DIMDEC
 70
     5
  9
$DIMTDEC
 70
     5
  9
$DIMALTU
 70
     2
  9
$DIMALTTD
 70
     3
  9
$DIMTXSTY
  7
Standard
  9
$DIMAUNIT
 70
     0
  9
$DIMADEC
 70
     2
  9
$DIMALTRND
 40
0.0
  9
$DIMAZIN
 70
     0
  9
$DIMDSEP
 70
    44
  9
$DIMATFIT
 70
     3
  9
$DIMFRAC
 70
     0
  9
$DIMLDRBLK
  1

  9
$DIMLUNIT
 70
     2
  9
$DIMLWD
 70
    -2
  9
$DIMLWE
 70
    -2
  9
$DIMTMOVE
 70
     0
  9
$LUNITS
 70
     2
  9
$LUPREC
 70
     5
  9
$SKETCHINC
 40
1.0
  9
$FILLETRAD
 40
10.0
  9
$AUNITS
 70
     0
  9
$AUPREC
 70
     2
  9
$MENU
  1
.
  9
$ELEVATION
 40
0.0
  9
$PELEVATION
 40
0.0
  9
$THICKNESS
 40
0.0
  9
$LIMCHECK
 70
     0
  9
$CHAMFERA
 40
0.0
  9
$CHAMFERB
 40
0.0
  9
$CHAMFERC
 40
0.0
  9
$CHAMFERD
 40
0.0
  9
$SKPOLY
 70
     0
  9
$TDCREATE
 40
2458030.637368125
  9
$TDUCREATE
 40
2458030.804034792
  9
$TDUPDATE
 40
2458030.637405972
  9
$TDUUPDATE
 40
2458030.804072639
  9
$TDINDWG
 40
0.0000000116
  9
$TDUSRTIMER
 40
0.0000000116
  9
$USRTIMER
 70
     1
  9
$ANGBASE
 50
0.0
  9
$ANGDIR
 70
     0
  9
$PDMODE
 70
     0
  9
$PDSIZE
 40
-1.0
  9
$PLINEWID
 40
0.0
  9
$SPLFRAME
 70
     0
  9
$SPLINETYPE
 70
     6
  9
$SPLINESEGS
 70
     8
  9
$HANDSEED
  5
387
  9
$SURFTAB1
 70
     6
  9
$SURFTAB2
 70
     6
  9
$SURFTYPE
 70
     6
  9
$SURFU
 70
     6
  9
$SURFV
 70
     6
  9
$UCSBASE
  2

  9
$UCSNAME
  2

  9
$UCSORG
 10
0.0
 20
0.0
 30
0.0
  9
$UCSXDIR
 10
1.0
 20
0.0
 30
0.0
  9
$UCSYDIR
 10
0.0
 20
1.0
 30
0.0
  9
$UCSORTHOREF
  2

  9
$UCSORTHOVIEW
 70
     0
  9
$UCSORGTOP
 10
0.0
 20
0.0
 30
0.0
  9
$UCSORGBOTTOM
 10
0.0
 20
0.0
 30
0.0
  9
$UCSORGLEFT
 10
0.0
 20
0.0
 30
0.0
  9
$UCSORGRIGHT
 10
0.0
 20
0.0
 30
0.0
  9
$UCSORGFRONT
 10
0.0
 20
0.0
 30
0.0
  9
$UCSORGBACK
 10
0.0
 20
0.0
 30
0.0
  9
$PUCSBASE
  2

  9
$PUCSNAME
  2

  9
$PUCSORG
 10
0.0
 20
0.0
 30
0.0
  9
$PUCSXDIR
 10
1.0
 20
0.0
 30
0.0
  9
$PUCSYDIR
 10
0.0
 20
1.0
 30
0.0
  9
$PUCSORTHOREF
  2

  9
$PUCSORTHOVIEW
 70
     0
  9
$PUCSORGTOP
 10
0.0
 20
0.0
 30
0.0
  9
$PUCSORGBOTTOM
 10
0.0
 20
0.0
 30
0.0
  9
$PUCSORGLEFT
 10
0.0
 20
0.0
 30
0.0
  9
$PUCSORGRIGHT
 10
0.0
 20
0.0
 30
0.0
  9
$PUCSORGFRONT
 10
0.0
 20
0.0
 30
0.0
  9
$PUCSORGBACK
 10
0.0
 20
0.0
 30
0.0
  9
$USERI1
 70
     0
  9
$USERI2
 70
     0
  9
$USERI3
 70
     0
  9
$USERI4
 70
     0
  9
$USERI5
 70
     0
  9
$USERR1
 40
0.0
  9
$USERR2
 40
0.0
  9
$USERR3
 40
0.0
  9
$USERR4
 40
0.0
  9
$USERR5
 40
0.0
  9
$WORLDVIEW
 70
     1
  9
$SHADEDGE
 70
     3
  9
$SHADEDIF
 70
    70
  9
$TILEMODE
 70
     1
  9
$MAXACTVP
 70
    64
  9
$PINSBASE
 10
0.0
 20
0.0
 30
0.0
  9
$PLIMCHECK
 70
     0
  9
$PEXTMIN
 10
1.0000000000E+20
 20
1.0000000000E+20
 30
1.0000000000E+20
  9
$PEXTMAX
 10
-1.0000000000E+20
 20
-1.0000000000E+20
 30
-1.0000000000E+20
  9
$PLIMMIN
 10
0.0
 20
0.0
  9
$PLIMMAX
 10
420.0
 20
297.0
  9
$UNITMODE
 70
     0
  9
$VISRETAIN
 70
     1
  9
$PLINEGEN
 70
     0
  9
$PSLTSCALE
 70
     1
  9
$TREEDEPTH
 70
  3020
  9
$CMLSTYLE
  2
Standard
  9
$CMLJUST
 70
     0
  9
$CMLSCALE
 40
20.0
  9
$PROXYGRAPHICS
 70
     1
  9
$MEASUREMENT
 70
     1
  9
$CELWEIGHT
370
    -1
  9
$ENDCAPS
280
     0
  9
$JOINSTYLE
280
     0
  9
$LWDISPLAY
290
     1
  9
$INSUNITS
 70
     4
  9
$HYPERLINKBASE
  1

  9
$STYLESHEET
  1

  9
$XEDIT
290
     1
  9
$CEPSNTYPE
380
     0
  9
$PSTYLEMODE
290
     1
  9
$FINGERPRINTGUID
  2
{F17A5439-6C80-4B4C-9AC0-6C8707035C40}
  9
$VERSIONGUID
  2
{FAEB1C32-E019-11D5-929B-00C0DF256EC4}
  9
$EXTNAMES
290
     1
  9
$PSVPSCALE
 40
0.0
  9
$OLESTARTUP
290
     0
  0
ENDSEC
  0
SECTION
  2
CLASSES
  0
CLASS
  1
ACDBDICTIONARYWDFLT
  2
AcDbDictionaryWithDefault
  3
ObjectDBX Classes
 90
        0
280
     0
281
     0
  0
CLASS
  1
VISUALSTYLE
  2
AcDbVisualStyle
  3
ObjectDBX Classes
 90
     4095
280
     0
281
     0
  0
CLASS
  1
MATERIAL
  2
AcDbMaterial
  3
ObjectDBX Classes
 90
     1153
280
     0
281
     0
  0
CLASS
  1
SCALE
  2
AcDbScale
  3
ObjectDBX Classes
 90
     1153
280
     0
281
     0
  0
CLASS
  1
TABLESTYLE
  2
AcDbTableStyle
  3
ObjectDBX Classes
 90
     4095
280
     0
281
     0
  0
CLASS
  1
MLEADERSTYLE
  2
AcDbMLeaderStyle
  3
ACDB_MLEADERSTYLE_CLASS
 90
     4095
280
     0
281
     0
  0
CLASS
  1
SUN
  2
AcDbSun
  3
SCENEOE
 90
     1153
280
     0
281
     0
  0
CLASS
  1
ACDBPLACEHOLDER
  2
AcDbPlaceHolder
  3
ObjectDBX Classes
 90
        0
280
     0
281
     0
  0
CLASS
  1
LAYOUT
  2
AcDbLayout
  3
ObjectDBX Classes
 90
        0
280
     0
281
     0
  0
ENDSEC
  0
SECTION
  2
TABLES
  0
TABLE
  2
VPORT
  5
8
330
0
100
AcDbSymbolTable
 70
     1
  0
VPORT
  5
29
330
8
100
AcDbSymbolTableRecord
100
AcDbViewportTableRecord
  2
*Active
 70
     0
 10
0.0
 20
0.0
 11
1.0
 21
1.0
 12
0.0
 22
0.0
 13
0.0
 23
0.0
 14
10.0
 24
10.0
 15
10.0
 25
10.0
 16
0.0
 26
0.0
 36
1.0
 17
0.0
 27
0.0
 37
0.0
 40
193.3110005415
 41
1.2463851054
 42
50.0
 43
0.0
 44
0.0
 50
0.0
 51
0.0
 71
     0
 72
   100
 73
     1
 74
     3
 75
     0
 76
     0
 77
     0
 78
     0
281
     0
 65
     1
110
0.0
120
0.0
130
0.0
111
1.0
121
0.0
131
0.0
112
0.0
122
1.0
132
0.0
 79
     0
146
0.0
  0
ENDTAB
  0
TABLE
  2
LTYPE
  5
5
330
0
100
AcDbSymbolTable
 70
     6
  0
LTYPE
  5
14
330
5
100
AcDbSymbolTableRecord
100
AcDbLinetypeTableRecord
  2
ByBlock
 70
     0
  3

 72
    65
 73
     0
 40
0.0
  0
LTYPE
  5
15
330
5
100
AcDbSymbolTableRecord
100
AcDbLinetypeTableRecord
  2
ByLayer
 70
     0
  3

 72
    65
 73
     0
 40
0.0
  0
LTYPE
  5
16
330
5
100
AcDbSymbolTableRecord
100
AcDbLinetypeTableRecord
  2
Continuous
 70
     0
  3
Solid line
 72
    65
 73
     0
 40
0.0
  0
LTYPE
  5
6E
330
5
100
AcDbSymbolTableRecord
100
AcDbLinetypeTableRecord
  2
HIDDEN
 70
     0
  3
Hidden __ __ __ __ __ __ __ __ __ __ __ __ __ __
 72
    65
 73
     2
 40
0.001905
 49
0.00127
 74
     0
 49
-0.000635
 74
     0
  0
LTYPE
  5
6F
330
5
100
AcDbSymbolTableRecord
100
AcDbLinetypeTableRecord
  2
PHANTOM
 70
     0
  3
Phantom ______  __  __  ______  __  __  ______
 72
    65
 73
     6
 40
0.0127
 49
0.00635
 74
     0
 49
-0.00127
 74
     0
 49
0.00127
 74
     0
 49
-0.00127
 74
     0
 49
0.00127
 74
     0
 49
-0.00127
 74
     0
  0
LTYPE
  5
70
330
5
100
AcDbSymbolTableRecord
100
AcDbLinetypeTableRecord
  2
CENTER
 70
     0
  3
Center ____ _ ____ _ ____ _ ____ _ ____ _ ____
 72
    65
 73
     4
 40
0.01016
 49
0.00635
 74
     0
 49
-0.00127
 74
     0
 49
0.00127
 74
     0
 49
-0.00127
 74
     0
  0
LTYPE
  5
71
330
5
100
AcDbSymbolTableRecord
100
AcDbLinetypeTableRecord
  2
CENTERX2
 70
     0
  3
Center (2x) ________  __  ________  __  _____
 72
    65
 73
     4
 40
0.02032
 49
0.0127
 74
     0
 49
-0.00254
 74
     0
 49
0.00254
 74
     0
 49
-0.00254
 74
     0
  0
LTYPE
  5
72
330
5
100
AcDbSymbolTableRecord
100
AcDbLinetypeTableRecord
  2
DOT2
 70
     0
  3
Dot (.5x) ........................................
 72
    65
 73
     2
 40
0.000635
 49
0.0
 74
     0
 49
-0.000635
 74
     0
  0
ENDTAB
  0
TABLE
  2
LAYER
  5
2
330
0
100
AcDbSymbolTable
 70
     1
  0
LAYER
  5
10
330
2
100
AcDbSymbolTableRecord
100
AcDbLayerTableRecord
  2
0
 70
     0
 62
     7
  6
Continuous
370
    -3
390
F
  0
ENDTAB
  0
TABLE
  2
STYLE
  5
3
330
0
100
AcDbSymbolTable
 70
     1
  0
STYLE
  5
11
330
3
100
AcDbSymbolTableRecord
100
AcDbTextStyleTableRecord
  2
Standard
 70
     0
 40
0.0
 41
1.0
 50
0.0
 71
     0
 42
0.003175
  3
txt
  4

  0
ENDTAB
  0
TABLE
  2
VIEW
  5
6
330
0
100
AcDbSymbolTable
 70
     0
  0
ENDTAB
  0
TABLE
  2
UCS
  5
7
330
0
100
AcDbSymbolTable
 70
     0
  0
ENDTAB
  0
TABLE
  2
APPID
  5
9
330
0
100
AcDbSymbolTable
 70
     1
  0
APPID
  5
12
330
9
100
AcDbSymbolTableRecord
100
AcDbRegAppTableRecord
  2
ACAD
 70
     0
  0
ENDTAB
  0
TABLE
  2
DIMSTYLE
  5
A
330
0
100
AcDbSymbolTable
 70
     1
100
AcDbDimStyleTable
  0
DIMSTYLE
105
27
330
A
100
AcDbSymbolTableRecord
100
AcDbDimStyleTableRecord
  2
ISO-25
 70
     0
 41
2.5
 42
0.625
 43
3.75
 44
1.25
 73
     0
 74
     0
 77
     1
 78
     8
140
2.5
141
2.5
143
0.0393700787
147
0.625
171
     3
172
     1
178
     0
271
     2
272
     2
274
     3
278
    44
283
     0
284
     8
340
11
  0
ENDTAB
  0
TABLE
  2
BLOCK_RECORD
  5
1
330
0
100
AcDbSymbolTable
 70
     1
  0
BLOCK_RECORD
  5
1F
330
1
100
AcDbSymbolTableRecord
100
AcDbBlockTableRecord
  2
*Model_Space
340
22
  0
BLOCK_RECORD
  5
1B
330
1
100
AcDbSymbolTableRecord
100
AcDbBlockTableRecord
  2
*Paper_Space
340
1E
  0
BLOCK_RECORD
  5
23
330
1
100
AcDbSymbolTableRecord
100
AcDbBlockTableRecord
  2
*Paper_Space0
340
26
  0
ENDTAB
  0
ENDSEC
  0
SECTION
  2
BLOCKS
  0
BLOCK
  5
20
330
1F
100
AcDbEntity
  8
0
100
AcDbBlockBegin
  2
*Model_Space
 70
     0
 10
0.0
 20
0.0
 30
0.0
  3
*Model_Space
  1

  0
ENDBLK
  5
21
330
1F
100
AcDbEntity
  8
0
100
AcDbBlockEnd
  0
BLOCK
  5
1C
330
1B
100
AcDbEntity
 67
     1
  8
0
100
AcDbBlockBegin
  2
*Paper_Space
 70
     0
 10
0.0
 20
0.0
 30
0.0
  3
*Paper_Space
  1

  0
ENDBLK
  5
1D
330
1B
100
AcDbEntity
 67
     1
  8
0
100
AcDbBlockEnd
  0
BLOCK
  5
24
330
23
100
AcDbEntity
  8
0
100
AcDbBlockBegin
  2
*Paper_Space0
 70
     0
 10
0.0
 20
0.0
 30
0.0
  3
*Paper_Space0
  1

  0
ENDBLK
  5
25
330
23
100
AcDbEntity
  8
0
100
AcDbBlockEnd
  0
ENDSEC
  0
SECTION
  2
ENTITIES
  0
CIRCLE
  5
73
330
1F
100
AcDbEntity
  8
0
  6
Continuous
 62
     7
370
    15
100
AcDbCircle
 10
-15.25
 20
45.75
 30
0.0
 40
1.600000000000003
  0
CIRCLE
  5
74
330
1F
100
AcDbEntity
  8
0
  6
Continuous
 62
     7
370
    15
100
AcDbCircle
 10
15.25
 20
-45.75
 30
0.0
 40
1.600000000000003
  0
CIRCLE
  5
F5
330
1F
100
AcDbEntity
  8
0
  6
Continuous
 62
     7
370
    15
100
AcDbCircle
 10
-19.25
 20
-81.0
 30
0.0
 40
1.599999999999998
  0
CIRCLE
  5
F6
330
1F
100
AcDbEntity
  8
0
  6
Continuous
 62
     7
370
    15
100
AcDbCircle
 10
19.25
 20
81.0
 30
0.0
 40
1.599999999999994
  0
CIRCLE
  5
147
330
1F
100
AcDbEntity
  8
0
  6
Continuous
 62
     7
370
    15
100
AcDbCircle
 10
-15.25
 20
22.75
 30
0.0
 40
1.600000000000044
  0
CIRCLE
  5
148
330
1F
100
AcDbEntity
  8
0
  6
Continuous
 62
     7
370
    15
100
AcDbCircle
 10
15.25
 20
53.25
 30
0.0
 40
1.600000000000001
  0
CIRCLE
  5
149
330
1F
100
AcDbEntity
  8
0
  6
Continuous
 62
     7
370
    15
100
AcDbCircle
 10
15.25
 20
-22.75
 30
0.0
 40
1.600000000000044
  0
CIRCLE
  5
14A
330
1F
100
AcDbEntity
  8
0
  6
Continuous
 62
     7
370
    15
100
AcDbCircle
 10
-15.25
 20
-53.25
 30
0.0
 40
1.600000000000005
  0
CIRCLE
  5
14B
330
1F
100
AcDbEntity
  8
0
  6
Continuous
 62
     7
370
    15
100
AcDbCircle
 10
-15.25
 20
-15.25
 30
0.0
 40
1.600000000000023
  0
CIRCLE
  5
14C
330
1F
100
AcDbEntity
  8
0
  6
Continuous
 62
     7
370
    15
100
AcDbCircle
 10
15.25
 20
15.25
 30
0.0
 40
1.600000000000023
  0
CIRCLE
  5
14D
330
1F
100
AcDbEntity
  8
0
  6
Continuous
 62
     7
370
    15
100
AcDbCircle
 10
-22.3687954882
 20
-57.1672552462
 30
0.0
 40
1.500000000000078
  0
CIRCLE
  5
14E
330
1F
100
AcDbEntity
  8
0
  6
Continuous
 62
     7
370
    15
100
AcDbCircle
 10
-103.3638178467
 20
-80.00154778
 30
0.0
 40
3.250000000000156
  0
CIRCLE
  5
14F
330
1F
100
AcDbEntity
  8
0
  6
Continuous
 62
     7
370
    15
100
AcDbCircle
 10
26.6447872902
 20
-45.4213668545
 30
0.0
 40
1.500000000000078
  0
CIRCLE
  5
158
330
1F
100
AcDbEntity
  8
0
  6
Continuous
 62
     7
370
    15
100
AcDbCircle
 10
22.3687954882
 20
57.1672552462
 30
0.0
 40
1.500000000000082
  0
CIRCLE
  5
159
330
1F
100
AcDbEntity
  8
0
  6
Continuous
 62
     7
370
    15
100
AcDbCircle
 10
103.3638178467
 20
80.00154778
 30
0.0
 40
3.250000000000156
  0
CIRCLE
  5
15A
330
1F
100
AcDbEntity
  8
0
  6
Continuous
 62
     7
370
    15
100
AcDbCircle
 10
-26.6447872902
 20
45.4213668545
 30
0.0
 40
1.500000000000078
  0
CIRCLE
  5
1BD
330
1F
100
AcDbEntity
  8
0
  6
Continuous
 62
     7
370
    15
100
AcDbCircle
 10
-22.3687954882
 20
57.1672552462
 30
0.0
 40
1.500000000000082
  0
CIRCLE
  5
1BE
330
1F
100
AcDbEntity
  8
0
  6
Continuous
 62
     7
370
    15
100
AcDbCircle
 10
-103.3638178467
 20
80.00154778
 30
0.0
 40
3.250000000000156
  0
CIRCLE
  5
1DF
330
1F
100
AcDbEntity
  8
0
  6
Continuous
 62
     7
370
    15
100
AcDbCircle
 10
26.6447872902
 20
45.4213668545
 30
0.0
 40
1.500000000000078
  0
CIRCLE
  5
1E0
330
1F
100
AcDbEntity
  8
0
  6
Continuous
 62
     7
370
    15
100
AcDbCircle
 10
22.3687954882
 20
-57.1672552462
 30
0.0
 40
1.500000000000078
  0
CIRCLE
  5
1E1
330
1F
100
AcDbEntity
  8
0
  6
Continuous
 62
     7
370
    15
100
AcDbCircle
 10
103.3638178467
 20
-80.00154778
 30
0.0
 40
3.250000000000156
  0
CIRCLE
  5
202
330
1F
100
AcDbEntity
  8
0
  6
Continuous
 62
     7
370
    15
100
AcDbCircle
 10
-26.6447872902
 20
-45.4213668545
 30
0.0
 40
1.500000000000078
  0
CIRCLE
  5
203
330
1F
100
AcDbEntity
  8
0
  6
Continuous
 62
     7
370
    15
100
AcDbCircle
 10
-15.25
 20
15.25
 30
0.0
 40
1.6
  0
CIRCLE
  5
204
330
1F
100
AcDbEntity
  8
0
  6
Continuous
 62
     7
370
    15
100
AcDbCircle
 10
15.25
 20
-15.25
 30
0.0
 40
1.600000000000023
  0
CIRCLE
  5
205
330
1F
100
AcDbEntity
  8
0
  6
Continuous
 62
     7
370
    15
100
AcDbCircle
 10
-15.25
 20
-22.75
 30
0.0
 40
1.600000000000044
  0
CIRCLE
  5
206
330
1F
100
AcDbEntity
  8
0
  6
Continuous
 62
     7
370
    15
100
AcDbCircle
 10
15.25
 20
-53.25
 30
0.0
 40
1.600000000000003
  0
CIRCLE
  5
207
330
1F
100
AcDbEntity
  8
0
  6
Continuous
 62
     7
370
    15
100
AcDbCircle
 10
15.25
 20
22.75
 30
0.0
 40
1.600000000000044
  0
CIRCLE
  5
208
330
1F
100
AcDbEntity
  8
0
  6
Continuous
 62
     7
370
    15
100
AcDbCircle
 10
-15.25
 20
53.25
 30
0.0
 40
1.600000000000005
  0
CIRCLE
  5
209
330
1F
100
AcDbEntity
  8
0
  6
Continuous
 62
     7
370
    15
100
AcDbCircle
 10
-19.25
 20
81.0
 30
0.0
 40
1.599999999999998
  0
CIRCLE
  5
20A
330
1F
100
AcDbEntity
  8
0
  6
Continuous
 62
     7
370
    15
100
AcDbCircle
 10
19.25
 20
-81.0
 30
0.0
 40
1.599999999999994
  0
CIRCLE
  5
20B
330
1F
100
AcDbEntity
  8
0
  6
Continuous
 62
     7
370
    15
100
AcDbCircle
 10
-15.25
 20
-45.75
 30
0.0
 40
1.600000000000003
  0
CIRCLE
  5
20C
330
1F
100
AcDbEntity
  8
0
  6
Continuous
 62
     7
370
    15
100
AcDbCircle
 10
15.25
 20
45.75
 30
0.0
 40
1.600000000000003
  0
LINE
  5
20D
330
1F
100
AcDbEntity
  8
0
  6
Continuous
 62
     7
370
    15
100
AcDbLine
 10
-5.0
 20
74.8034222964
 30
0.0
 11
-5.0
 21
77.1965777036
 31
0.0
  0
LINE
  5
20E
330
1F
100
AcDbEntity
  8
0
  6
Continuous
 62
     7
370
    15
100
AcDbLine
 10
-5.5534222964
 20
77.75
 30
0.0
 11
-6.6965777036
 21
77.75
 31
0.0
  0
LINE
  5
20F
330
1F
100
AcDbEntity
  8
0
  6
Continuous
 62
     7
370
    15
100
AcDbLine
 10
-7.25
 20
77.1965777036
 30
0.0
 11
-7.25
 21
74.8034222964
 31
0.0
  0
LINE
  5
210
330
1F
100
AcDbEntity
  8
0
  6
Continuous
 62
     7
370
    15
100
AcDbLine
 10
-6.6965777036
 20
74.25
 30
0.0
 11
-5.5534222964
 21
74.25
 31
0.0
  0
LINE
  5
211
330
1F
100
AcDbEntity
  8
0
  6
Continuous
 62
     7
370
    15
100
AcDbLine
 10
-12.25
 20
74.8034222964
 30
0.0
 11
-12.25
 21
77.1965777036
 31
0.0
  0
LINE
  5
212
330
1F
100
AcDbEntity
  8
0
  6
Continuous
 62
     7
370
    15
100
AcDbLine
 10
-12.8034222964
 20
77.75
 30
0.0
 11
-13.9465777036
 21
77.75
 31
0.0
  0
LINE
  5
213
330
1F
100
AcDbEntity
  8
0
  6
Continuous
 62
     7
370
    15
100
AcDbLine
 10
-14.5
 20
77.1965777036
 30
0.0
 11
-14.5
 21
74.8034222964
 31
0.0
  0
LINE
  5
214
330
1F
100
AcDbEntity
  8
0
  6
Continuous
 62
     7
370
    15
100
AcDbLine
 10
-13.9465777036
 20
74.25
 30
0.0
 11
-12.8034222964
 21
74.25
 31
0.0
  0
LINE
  5
215
330
1F
100
AcDbEntity
  8
0
  6
Continuous
 62
     7
370
    15
100
AcDbLine
 10
-12.25
 20
84.8034222964
 30
0.0
 11
-12.25
 21
87.1965777036
 31
0.0
  0
LINE
  5
216
330
1F
100
AcDbEntity
  8
0
  6
Continuous
 62
     7
370
    15
100
AcDbLine
 10
-12.8034222964
 20
87.75
 30
0.0
 11
-13.9465777036
 21
87.75
 31
0.0
  0
LINE
  5
217
330
1F
100
AcDbEntity
  8
0
  6
Continuous
 62
     7
370
    15
100
AcDbLine
 10
-14.5
 20
87.1965777036
 30
0.0
 11
-14.5
 21
84.8034222964
 31
0.0
  0
LINE
  5
218
330
1F
100
AcDbEntity
  8
0
  6
Continuous
 62
     7
370
    15
100
AcDbLine
 10
-13.9465777036
 20
84.25
 30
0.0
 11
-12.8034222964
 21
84.25
 31
0.0
  0
LINE
  5
219
330
1F
100
AcDbEntity
  8
0
  6
Continuous
 62
     7
370
    15
100
AcDbLine
 10
-5.0
 20
84.8034222964
 30
0.0
 11
-5.0
 21
87.1965777036
 31
0.0
  0
LINE
  5
21A
330
1F
100
AcDbEntity
  8
0
  6
Continuous
 62
     7
370
    15
100
AcDbLine
 10
-5.5534222964
 20
87.75
 30
0.0
 11
-6.6965777036
 21
87.75
 31
0.0
  0
LINE
  5
21B
330
1F
100
AcDbEntity
  8
0
  6
Continuous
 62
     7
370
    15
100
AcDbLine
 10
-7.25
 20
87.1965777036
 30
0.0
 11
-7.25
 21
84.8034222964
 31
0.0
  0
LINE
  5
21C
330
1F
100
AcDbEntity
  8
0
  6
Continuous
 62
     7
370
    15
100
AcDbLine
 10
-6.6965777036
 20
84.25
 30
0.0
 11
-5.5534222964
 21
84.25
 31
0.0
  0
LINE
  5
21D
330
1F
100
AcDbEntity
  8
0
  6
Continuous
 62
     7
370
    15
100
AcDbLine
 10
12.25
 20
77.1965777036
 30
0.0
 11
12.25
 21
74.8034222964
 31
0.0
  0
LINE
  5
21E
330
1F
100
AcDbEntity
  8
0
  6
Continuous
 62
     7
370
    15
100
AcDbLine
 10
12.8034222964
 20
74.25
 30
0.0
 11
13.9465777036
 21
74.25
 31
0.0
  0
LINE
  5
21F
330
1F
100
AcDbEntity
  8
0
  6
Continuous
 62
     7
370
    15
100
AcDbLine
 10
14.5
 20
74.8034222964
 30
0.0
 11
14.5
 21
77.1965777036
 31
0.0
  0
LINE
  5
220
330
1F
100
AcDbEntity
  8
0
  6
Continuous
 62
     7
370
    15
100
AcDbLine
 10
13.9465777036
 20
77.75
 30
0.0
 11
12.8034222964
 21
77.75
 31
0.0
  0
LINE
  5
221
330
1F
100
AcDbEntity
  8
0
  6
Continuous
 62
     7
370
    15
100
AcDbLine
 10
5.0
 20
77.1965777036
 30
0.0
 11
5.0
 21
74.8034222964
 31
0.0
  0
LINE
  5
222
330
1F
100
AcDbEntity
  8
0
  6
Continuous
 62
     7
370
    15
100
AcDbLine
 10
5.5534222964
 20
74.25
 30
0.0
 11
6.6965777036
 21
74.25
 31
0.0
  0
LINE
  5
223
330
1F
100
AcDbEntity
  8
0
  6
Continuous
 62
     7
370
    15
100
AcDbLine
 10
7.25
 20
74.8034222964
 30
0.0
 11
7.25
 21
77.1965777036
 31
0.0
  0
LINE
  5
224
330
1F
100
AcDbEntity
  8
0
  6
Continuous
 62
     7
370
    15
100
AcDbLine
 10
6.6965777036
 20
77.75
 30
0.0
 11
5.5534222964
 21
77.75
 31
0.0
  0
LINE
  5
225
330
1F
100
AcDbEntity
  8
0
  6
Continuous
 62
     7
370
    15
100
AcDbLine
 10
5.0
 20
87.1965777036
 30
0.0
 11
5.0
 21
84.8034222964
 31
0.0
  0
LINE
  5
226
330
1F
100
AcDbEntity
  8
0
  6
Continuous
 62
     7
370
    15
100
AcDbLine
 10
5.5534222964
 20
84.25
 30
0.0
 11
6.6965777036
 21
84.25
 31
0.0
  0
LINE
  5
227
330
1F
100
AcDbEntity
  8
0
  6
Continuous
 62
     7
370
    15
100
AcDbLine
 10
7.25
 20
84.8034222964
 30
0.0
 11
7.25
 21
87.1965777036
 31
0.0
  0
LINE
  5
228
330
1F
100
AcDbEntity
  8
0
  6
Continuous
 62
     7
370
    15
100
AcDbLine
 10
6.6965777036
 20
87.75
 30
0.0
 11
5.5534222964
 21
87.75
 31
0.0
  0
LINE
  5
229
330
1F
100
AcDbEntity
  8
0
  6
Continuous
 62
     7
370
    15
100
AcDbLine
 10
12.25
 20
87.1965777036
 30
0.0
 11
12.25
 21
84.8034222964
 31
0.0
  0
LINE
  5
22A
330
1F
100
AcDbEntity
  8
0
  6
Continuous
 62
     7
370
    15
100
AcDbLine
 10
12.8034222964
 20
84.25
 30
0.0
 11
13.9465777036
 21
84.25
 31
0.0
  0
LINE
  5
22B
330
1F
100
AcDbEntity
  8
0
  6
Continuous
 62
     7
370
    15
100
AcDbLine
 10
14.5
 20
84.8034222964
 30
0.0
 11
14.5
 21
87.1965777036
 31
0.0
  0
LINE
  5
22C
330
1F
100
AcDbEntity
  8
0
  6
Continuous
 62
     7
370
    15
100
AcDbLine
 10
13.9465777036
 20
87.75
 30
0.0
 11
12.8034222964
 21
87.75
 31
0.0
  0
LINE
  5
22D
330
1F
100
AcDbEntity
  8
0
  6
Continuous
 62
     7
370
    15
100
AcDbLine
 10
-5.0
 20
-87.1965777036
 30
0.0
 11
-5.0
 21
-84.8034222964
 31
0.0
  0
LINE
  5
22E
330
1F
100
AcDbEntity
  8
0
  6
Continuous
 62
     7
370
    15
100
AcDbLine
 10
-5.5534222964
 20
-84.25
 30
0.0
 11
-6.6965777036
 21
-84.25
 31
0.0
  0
LINE
  5
22F
330
1F
100
AcDbEntity
  8
0
  6
Continuous
 62
     7
370
    15
100
AcDbLine
 10
-7.25
 20
-84.8034222964
 30
0.0
 11
-7.25
 21
-87.1965777036
 31
0.0
  0
LINE
  5
230
330
1F
100
AcDbEntity
  8
0
  6
Continuous
 62
     7
370
    15
100
AcDbLine
 10
-6.6965777036
 20
-87.75
 30
0.0
 11
-5.5534222964
 21
-87.75
 31
0.0
  0
LINE
  5
231
330
1F
100
AcDbEntity
  8
0
  6
Continuous
 62
     7
370
    15
100
AcDbLine
 10
-12.25
 20
-87.1965777036
 30
0.0
 11
-12.25
 21
-84.8034222964
 31
0.0
  0
LINE
  5
232
330
1F
100
AcDbEntity
  8
0
  6
Continuous
 62
     7
370
    15
100
AcDbLine
 10
-12.8034222964
 20
-84.25
 30
0.0
 11
-13.9465777036
 21
-84.25
 31
0.0
  0
LINE
  5
233
330
1F
100
AcDbEntity
  8
0
  6
Continuous
 62
     7
370
    15
100
AcDbLine
 10
-14.5
 20
-84.8034222964
 30
0.0
 11
-14.5
 21
-87.1965777036
 31
0.0
  0
LINE
  5
234
330
1F
100
AcDbEntity
  8
0
  6
Continuous
 62
     7
370
    15
100
AcDbLine
 10
-13.9465777036
 20
-87.75
 30
0.0
 11
-12.8034222964
 21
-87.75
 31
0.0
  0
LINE
  5
235
330
1F
100
AcDbEntity
  8
0
  6
Continuous
 62
     7
370
    15
100
AcDbLine
 10
12.25
 20
-84.8034222964
 30
0.0
 11
12.25
 21
-87.1965777036
 31
0.0
  0
LINE
  5
236
330
1F
100
AcDbEntity
  8
0
  6
Continuous
 62
     7
370
    15
100
AcDbLine
 10
12.8034222964
 20
-87.75
 30
0.0
 11
13.9465777036
 21
-87.75
 31
0.0
  0
LINE
  5
237
330
1F
100
AcDbEntity
  8
0
  6
Continuous
 62
     7
370
    15
100
AcDbLine
 10
14.5
 20
-87.1965777036
 30
0.0
 11
14.5
 21
-84.8034222964
 31
0.0
  0
LINE
  5
238
330
1F
100
AcDbEntity
  8
0
  6
Continuous
 62
     7
370
    15
100
AcDbLine
 10
13.9465777036
 20
-84.25
 30
0.0
 11
12.8034222964
 21
-84.25
 31
0.0
  0
LINE
  5
239
330
1F
100
AcDbEntity
  8
0
  6
Continuous
 62
     7
370
    15
100
AcDbLine
 10
5.0
 20
-84.8034222964
 30
0.0
 11
5.0
 21
-87.1965777036
 31
0.0
  0
LINE
  5
23A
330
1F
100
AcDbEntity
  8
0
  6
Continuous
 62
     7
370
    15
100
AcDbLine
 10
5.5534222964
 20
-87.75
 30
0.0
 11
6.6965777036
 21
-87.75
 31
0.0
  0
LINE
  5
23B
330
1F
100
AcDbEntity
  8
0
  6
Continuous
 62
     7
370
    15
100
AcDbLine
 10
7.25
 20
-87.1965777036
 30
0.0
 11
7.25
 21
-84.8034222964
 31
0.0
  0
LINE
  5
23C
330
1F
100
AcDbEntity
  8
0
  6
Continuous
 62
     7
370
    15
100
AcDbLine
 10
6.6965777036
 20
-84.25
 30
0.0
 11
5.5534222964
 21
-84.25
 31
0.0
  0
LINE
  5
23D
330
1F
100
AcDbEntity
  8
0
  6
Continuous
 62
     7
370
    15
100
AcDbLine
 10
5.0
 20
-74.8034222964
 30
0.0
 11
5.0
 21
-77.1965777036
 31
0.0
  0
LINE
  5
23E
330
1F
100
AcDbEntity
  8
0
  6
Continuous
 62
     7
370
    15
100
AcDbLine
 10
5.5534222964
 20
-77.75
 30
0.0
 11
6.6965777036
 21
-77.75
 31
0.0
  0
LINE
  5
23F
330
1F
100
AcDbEntity
  8
0
  6
Continuous
 62
     7
370
    15
100
AcDbLine
 10
7.25
 20
-77.1965777036
 30
0.0
 11
7.25
 21
-74.8034222964
 31
0.0
  0
LINE
  5
240
330
1F
100
AcDbEntity
  8
0
  6
Continuous
 62
     7
370
    15
100
AcDbLine
 10
6.6965777036
 20
-74.25
 30
0.0
 11
5.5534222964
 21
-74.25
 31
0.0
  0
LINE
  5
241
330
1F
100
AcDbEntity
  8
0
  6
Continuous
 62
     7
370
    15
100
AcDbLine
 10
12.25
 20
-74.8034222964
 30
0.0
 11
12.25
 21
-77.1965777036
 31
0.0
  0
LINE
  5
242
330
1F
100
AcDbEntity
  8
0
  6
Continuous
 62
     7
370
    15
100
AcDbLine
 10
12.8034222964
 20
-77.75
 30
0.0
 11
13.9465777036
 21
-77.75
 31
0.0
  0
LINE
  5
243
330
1F
100
AcDbEntity
  8
0
  6
Continuous
 62
     7
370
    15
100
AcDbLine
 10
14.5
 20
-77.1965777036
 30
0.0
 11
14.5
 21
-74.8034222964
 31
0.0
  0
LINE
  5
244
330
1F
100
AcDbEntity
  8
0
  6
Continuous
 62
     7
370
    15
100
AcDbLine
 10
13.9465777036
 20
-74.25
 30
0.0
 11
12.8034222964
 21
-74.25
 31
0.0
  0
LINE
  5
245
330
1F
100
AcDbEntity
  8
0
  6
Continuous
 62
     7
370
    15
100
AcDbLine
 10
-12.25
 20
-77.1965777036
 30
0.0
 11
-12.25
 21
-74.8034222964
 31
0.0
  0
LINE
  5
246
330
1F
100
AcDbEntity
  8
0
  6
Continuous
 62
     7
370
    15
100
AcDbLine
 10
-12.8034222964
 20
-74.25
 30
0.0
 11
-13.9465777036
 21
-74.25
 31
0.0
  0
LINE
  5
247
330
1F
100
AcDbEntity
  8
0
  6
Continuous
 62
     7
370
    15
100
AcDbLine
 10
-14.5
 20
-74.8034222964
 30
0.0
 11
-14.5
 21
-77.1965777036
 31
0.0
  0
LINE
  5
248
330
1F
100
AcDbEntity
  8
0
  6
Continuous
 62
     7
370
    15
100
AcDbLine
 10
-13.9465777036
 20
-77.75
 30
0.0
 11
-12.8034222964
 21
-77.75
 31
0.0
  0
LINE
  5
249
330
1F
100
AcDbEntity
  8
0
  6
Continuous
 62
     7
370
    15
100
AcDbLine
 10
-5.0
 20
-77.1965777036
 30
0.0
 11
-5.0
 21
-74.8034222964
 31
0.0
  0
LINE
  5
24A
330
1F
100
AcDbEntity
  8
0
  6
Continuous
 62
     7
370
    15
100
AcDbLine
 10
-5.5534222964
 20
-74.25
 30
0.0
 11
-6.6965777036
 21
-74.25
 31
0.0
  0
LINE
  5
24B
330
1F
100
AcDbEntity
  8
0
  6
Continuous
 62
     7
370
    15
100
AcDbLine
 10
-7.25
 20
-74.8034222964
 30
0.0
 11
-7.25
 21
-77.1965777036
 31
0.0
  0
LINE
  5
24C
330
1F
100
AcDbEntity
  8
0
  6
Continuous
 62
     7
370
    15
100
AcDbLine
 10
-6.6965777036
 20
-77.75
 30
0.0
 11
-5.5534222964
 21
-77.75
 31
0.0
  0
LINE
  5
24D
330
1F
100
AcDbEntity
  8
0
  6
Continuous
 62
     7
370
    15
100
AcDbLine
 10
-17.8803604761
 20
-7.0
 30
0.0
 11
-17.8803604761
 21
7.0
 31
0.0
  0
LINE
  5
24E
330
1F
100
AcDbEntity
  8
0
  6
Continuous
 62
     7
370
    15
100
AcDbLine
 10
-20.1303604761
 20
7.0
 30
0.0
 11
-20.1303604761
 21
-7.0
 31
0.0
  0
LINE
  5
24F
330
1F
100
AcDbEntity
  8
0
  6
Continuous
 62
     7
370
    15
100
AcDbLine
 10
17.8803604761
 20
7.0
 30
0.0
 11
17.8803604761
 21
-7.0
 31
0.0
  0
LINE
  5
250
330
1F
100
AcDbEntity
  8
0
  6
Continuous
 62
     7
370
    15
100
AcDbLine
 10
20.1303604761
 20
-7.0
 30
0.0
 11
20.1303604761
 21
7.0
 31
0.0
  0
LINE
  5
251
330
1F
100
AcDbEntity
  8
0
  6
Continuous
 62
     7
370
    15
100
AcDbLine
 10
-9.075
 20
58.1413708795
 30
0.0
 11
-9.075
 21
70.3413708795
 31
0.0
  0
LINE
  5
252
330
1F
100
AcDbEntity
  8
0
  6
Continuous
 62
     7
370
    15
100
AcDbLine
 10
-11.325
 20
70.3413708795
 30
0.0
 11
-11.325
 21
58.1413708795
 31
0.0
  0
LINE
  5
253
330
1F
100
AcDbEntity
  8
0
  6
Continuous
 62
     7
370
    15
100
AcDbLine
 10
9.075
 20
70.3413708795
 30
0.0
 11
9.075
 21
58.1413708795
 31
0.0
  0
LINE
  5
254
330
1F
100
AcDbEntity
  8
0
  6
Continuous
 62
     7
370
    15
100
AcDbLine
 10
11.325
 20
58.1413708795
 30
0.0
 11
11.325
 21
70.3413708795
 31
0.0
  0
LINE
  5
255
330
1F
100
AcDbEntity
  8
0
  6
Continuous
 62
     7
370
    15
100
AcDbLine
 10
-9.075
 20
-70.3413708795
 30
0.0
 11
-9.075
 21
-58.1413708795
 31
0.0
  0
LINE
  5
256
330
1F
100
AcDbEntity
  8
0
  6
Continuous
 62
     7
370
    15
100
AcDbLine
 10
-11.325
 20
-58.1413708795
 30
0.0
 11
-11.325
 21
-70.3413708795
 31
0.0
  0
LINE
  5
257
330
1F
100
AcDbEntity
  8
0
  6
Continuous
 62
     7
370
    15
100
AcDbLine
 10
9.075
 20
-58.1413708795
 30
0.0
 11
9.075
 21
-70.3413708795
 31
0.0
  0
LINE
  5
258
330
1F
100
AcDbEntity
  8
0
  6
Continuous
 62
     7
370
    15
100
AcDbLine
 10
11.325
 20
-70.3413708795
 30
0.0
 11
11.325
 21
-58.1413708795
 31
0.0
  0
LINE
  5
259
330
1F
100
AcDbEntity
  8
0
  6
Continuous
 62
     7
370
    15
100
AcDbLine
 10
-1.6
 20
-76.0
 30
0.0
 11
-1.6
 21
-86.15
 31
0.0
  0
LINE
  5
25A
330
1F
100
AcDbEntity
  8
0
  6
Continuous
 62
     7
370
    15
100
AcDbLine
 10
1.6
 20
-86.15
 30
0.0
 11
1.6
 21
-76.0
 31
0.0
  0
LINE
  5
25B
330
1F
100
AcDbEntity
  8
0
  6
Continuous
 62
     7
370
    15
100
AcDbLine
 10
-7.9
 20
28.9319840185
 30
0.0
 11
-7.9
 21
46.1819840185
 31
0.0
  0
LINE
  5
25C
330
1F
100
AcDbEntity
  8
0
  6
Continuous
 62
     7
370
    15
100
AcDbLine
 10
-11.1
 20
46.1819840185
 30
0.0
 11
-11.1
 21
28.9319840185
 31
0.0
  0
LINE
  5
25D
330
1F
100
AcDbEntity
  8
0
  6
Continuous
 62
     7
370
    15
100
AcDbLine
 10
7.9
 20
-28.9319840185
 30
0.0
 11
7.9
 21
-46.1819840185
 31
0.0
  0
LINE
  5
25E
330
1F
100
AcDbEntity
  8
0
  6
Continuous
 62
     7
370
    15
100
AcDbLine
 10
11.1
 20
-46.1819840185
 30
0.0
 11
11.1
 21
-28.9319840185
 31
0.0
  0
LINE
  5
25F
330
1F
100
AcDbEntity
  8
0
  6
Continuous
 62
     7
370
    15
100
AcDbLine
 10
7.9
 20
46.1819840185
 30
0.0
 11
7.9
 21
28.9319840185
 31
0.0
  0
LINE
  5
260
330
1F
100
AcDbEntity
  8
0
  6
Continuous
 62
     7
370
    15
100
AcDbLine
 10
11.1
 20
28.9319840185
 30
0.0
 11
11.1
 21
46.1819840185
 31
0.0
  0
LINE
  5
261
330
1F
100
AcDbEntity
  8
0
  6
Continuous
 62
     7
370
    15
100
AcDbLine
 10
-11.1
 20
-28.9319840185
 30
0.0
 11
-11.1
 21
-46.1819840185
 31
0.0
  0
LINE
  5
262
330
1F
100
AcDbEntity
  8
0
  6
Continuous
 62
     7
370
    15
100
AcDbLine
 10
-7.9
 20
-46.1819840185
 30
0.0
 11
-7.9
 21
-28.9319840185
 31
0.0
  0
LINE
  5
263
330
1F
100
AcDbEntity
  8
0
  6
Continuous
 62
     7
370
    15
100
AcDbLine
 10
14.75
 20
-6.75
 30
0.0
 11
14.75
 21
6.75
 31
0.0
  0
LINE
  5
264
330
1F
100
AcDbEntity
  8
0
  6
Continuous
 62
     7
370
    15
100
AcDbLine
 10
12.75
 20
8.75
 30
0.0
 11
-12.75
 21
8.75
 31
0.0
  0
LINE
  5
265
330
1F
100
AcDbEntity
  8
0
  6
Continuous
 62
     7
370
    15
100
AcDbLine
 10
-14.75
 20
6.75
 30
0.0
 11
-14.75
 21
-6.75
 31
0.0
  0
LINE
  5
266
330
1F
100
AcDbEntity
  8
0
  6
Continuous
 62
     7
370
    15
100
AcDbLine
 10
-12.75
 20
-8.75
 30
0.0
 11
12.75
 21
-8.75
 31
0.0
  0
LINE
  5
267
330
1F
100
AcDbEntity
  8
0
  6
Continuous
 62
     7
370
    15
100
AcDbLine
 10
5.1
 20
31.6413708795
 30
0.0
 11
5.1
 21
42.8913708795
 31
0.0
  0
LINE
  5
268
330
1F
100
AcDbEntity
  8
0
  6
Continuous
 62
     7
370
    15
100
AcDbLine
 10
3.1
 20
44.8913708795
 30
0.0
 11
-3.1
 21
44.8913708795
 31
0.0
  0
LINE
  5
269
330
1F
100
AcDbEntity
  8
0
  6
Continuous
 62
     7
370
    15
100
AcDbLine
 10
-5.1
 20
42.8913708795
 30
0.0
 11
-5.1
 21
31.6413708795
 31
0.0
  0
LINE
  5
26A
330
1F
100
AcDbEntity
  8
0
  6
Continuous
 62
     7
370
    15
100
AcDbLine
 10
-3.1
 20
29.6413708795
 30
0.0
 11
3.1
 21
29.6413708795
 31
0.0
  0
LINE
  5
26B
330
1F
100
AcDbEntity
  8
0
  6
Continuous
 62
     7
370
    15
100
AcDbLine
 10
1.6
 20
76.0
 30
0.0
 11
1.6
 21
86.15
 31
0.0
  0
LINE
  5
26C
330
1F
100
AcDbEntity
  8
0
  6
Continuous
 62
     7
370
    15
100
AcDbLine
 10
-1.6
 20
86.15
 30
0.0
 11
-1.6
 21
76.0
 31
0.0
  0
LINE
  5
26D
330
1F
100
AcDbEntity
  8
0
  6
Continuous
 62
     7
370
    15
100
AcDbLine
 10
5.1
 20
58.1413708795
 30
0.0
 11
5.1
 21
69.3913708795
 31
0.0
  0
LINE
  5
26E
330
1F
100
AcDbEntity
  8
0
  6
Continuous
 62
     7
370
    15
100
AcDbLine
 10
3.1
 20
71.3913708795
 30
0.0
 11
-3.1
 21
71.3913708795
 31
0.0
  0
LINE
  5
26F
330
1F
100
AcDbEntity
  8
0
  6
Continuous
 62
     7
370
    15
100
AcDbLine
 10
-5.1
 20
69.3913708795
 30
0.0
 11
-5.1
 21
58.1413708795
 31
0.0
  0
LINE
  5
270
330
1F
100
AcDbEntity
  8
0
  6
Continuous
 62
     7
370
    15
100
AcDbLine
 10
-3.1
 20
56.1413708795
 30
0.0
 11
3.1
 21
56.1413708795
 31
0.0
  0
LINE
  5
271
330
1F
100
AcDbEntity
  8
0
  6
Continuous
 62
     7
370
    15
100
AcDbLine
 10
5.1
 20
-69.3913708795
 30
0.0
 11
5.1
 21
-58.1413708795
 31
0.0
  0
LINE
  5
272
330
1F
100
AcDbEntity
  8
0
  6
Continuous
 62
     7
370
    15
100
AcDbLine
 10
3.1
 20
-56.1413708795
 30
0.0
 11
-3.1
 21
-56.1413708795
 31
0.0
  0
LINE
  5
273
330
1F
100
AcDbEntity
  8
0
  6
Continuous
 62
     7
370
    15
100
AcDbLine
 10
-5.1
 20
-58.1413708795
 30
0.0
 11
-5.1
 21
-69.3913708795
 31
0.0
  0
LINE
  5
274
330
1F
100
AcDbEntity
  8
0
  6
Continuous
 62
     7
370
    15
100
AcDbLine
 10
-3.1
 20
-71.3913708795
 30
0.0
 11
3.1
 21
-71.3913708795
 31
0.0
  0
LINE
  5
275
330
1F
100
AcDbEntity
  8
0
  6
Continuous
 62
     7
370
    15
100
AcDbLine
 10
5.1
 20
-42.8913708795
 30
0.0
 11
5.1
 21
-31.6413708795
 31
0.0
  0
LINE
  5
276
330
1F
100
AcDbEntity
  8
0
  6
Continuous
 62
     7
370
    15
100
AcDbLine
 10
3.1
 20
-29.6413708795
 30
0.0
 11
-3.1
 21
-29.6413708795
 31
0.0
  0
LINE
  5
277
330
1F
100
AcDbEntity
  8
0
  6
Continuous
 62
     7
370
    15
100
AcDbLine
 10
-5.1
 20
-31.6413708795
 30
0.0
 11
-5.1
 21
-42.8913708795
 31
0.0
  0
LINE
  5
278
330
1F
100
AcDbEntity
  8
0
  6
Continuous
 62
     7
370
    15
100
AcDbLine
 10
-3.1
 20
-44.8913708795
 30
0.0
 11
3.1
 21
-44.8913708795
 31
0.0
  0
LINE
  5
279
330
1F
100
AcDbEntity
  8
0
  6
Continuous
 62
     7
370
    15
100
AcDbLine
 10
24.3299725002
 20
69.1748703538
 30
0.0
 11
23.1516973069
 21
87.9166093266
 31
0.0
  0
LINE
  5
27A
330
1F
100
AcDbEntity
  8
0
  6
Continuous
 62
     7
370
    15
100
AcDbLine
 10
26.5083961905
 20
63.2661905696
 30
0.0
 11
24.3299725002
 21
69.1748703538
 31
0.0
  0
LINE
  5
27B
330
1F
100
AcDbEntity
  8
0
  6
Continuous
 62
     7
370
    15
100
AcDbLine
 10
83.4897447018
 20
81.3205382803
 30
0.0
 11
26.5083961905
 21
63.2661905696
 31
0.0
  0
LINE
  5
27C
330
1F
100
AcDbEntity
  8
0
  6
Continuous
 62
     7
370
    15
100
AcDbLine
 10
87.6109627197
 20
86.1394458854
 30
0.0
 11
87.5878668537
 21
86.0073000804
 31
0.0
  0
LINE
  5
27D
330
1F
100
AcDbEntity
  8
0
  6
Continuous
 62
     7
370
    15
100
AcDbLine
 10
104.0174355391
 20
94.5086493315
 30
0.0
 11
91.8019475788
 21
90.8548055949
 31
0.0
  0
LINE
  5
27E
330
1F
100
AcDbEntity
  8
0
  6
Continuous
 62
     7
370
    15
100
AcDbLine
 10
111.4610961481
 20
92.5618715733
 30
0.0
 11
108.4830724038
 21
94.0949273888
 31
0.0
  0
LINE
  5
27F
330
1F
100
AcDbEntity
  8
0
  6
Continuous
 62
     7
370
    15
100
AcDbLine
 10
117.7458459268
 20
79.9595232197
 30
0.0
 11
114.3529086925
 21
89.2797146326
 31
0.0
  0
LINE
  5
280
330
1F
100
AcDbEntity
  8
0
  6
Continuous
 62
     7
370
    15
100
AcDbLine
 10
116.3453897559
 20
72.4976216888
 30
0.0
 11
117.6408698307
 21
75.5864105989
 31
0.0
  0
LINE
  5
281
330
1F
100
AcDbEntity
  8
0
  6
Continuous
 62
     7
370
    15
100
AcDbLine
 10
101.4852350523
 20
64.2554061583
 30
0.0
 11
113.1908504308
 21
69.3098387445
 31
0.0
  0
LINE
  5
282
330
1F
100
AcDbEntity
  8
0
  6
Continuous
 62
     7
370
    15
100
AcDbLine
 10
95.1410189105
 20
65.2592525693
 30
0.0
 11
95.2436639401
 21
65.172881679
 31
0.0
  0
LINE
  5
283
330
1F
100
AcDbEntity
  8
0
  6
Continuous
 62
     7
370
    15
100
AcDbLine
 10
33.7364788182
 20
43.4110889319
 30
0.0
 11
88.9889623795
 21
66.2145230972
 31
0.0
  0
LINE
  5
284
330
1F
100
AcDbEntity
  8
0
  6
Continuous
 62
     7
370
    15
100
AcDbLine
 10
33.7364788182
 20
42.9291154361
 30
0.0
 11
33.7364788182
 21
43.4110889319
 31
0.0
  0
LINE
  5
285
330
1F
100
AcDbEntity
  8
0
  6
Continuous
 62
     7
370
    15
100
AcDbLine
 10
25.328619051
 20
30.2065336305
 30
0.0
 11
33.5644864995
 21
42.3683986808
 31
0.0
  0
LINE
  5
286
330
1F
100
AcDbEntity
  8
0
  6
Continuous
 62
     7
370
    15
100
AcDbLine
 10
24.9846344136
 20
-29.0851001199
 30
0.0
 11
24.9846344136
 21
29.0851001199
 31
0.0
  0
LINE
  5
287
330
1F
100
AcDbEntity
  8
0
  6
Continuous
 62
     7
370
    15
100
AcDbLine
 10
33.5644864995
 20
-42.3683986808
 30
0.0
 11
25.328619051
 21
-30.2065336305
 31
0.0
  0
LINE
  5
288
330
1F
100
AcDbEntity
  8
0
  6
Continuous
 62
     7
370
    15
100
AcDbLine
 10
33.7364788182
 20
-43.4110889319
 30
0.0
 11
33.7364788182
 21
-42.9291154361
 31
0.0
  0
LINE
  5
289
330
1F
100
AcDbEntity
  8
0
  6
Continuous
 62
     7
370
    15
100
AcDbLine
 10
88.9889623795
 20
-66.2145230972
 30
0.0
 11
33.7364788182
 21
-43.4110889319
 31
0.0
  0
LINE
  5
28A
330
1F
100
AcDbEntity
  8
0
  6
Continuous
 62
     7
370
    15
100
AcDbLine
 10
95.2436639401
 20
-65.172881679
 30
0.0
 11
95.1410189105
 21
-65.2592525693
 31
0.0
  0
LINE
  5
28B
330
1F
100
AcDbEntity
  8
0
  6
Continuous
 62
     7
370
    15
100
AcDbLine
 10
113.1908504308
 20
-69.3098387445
 30
0.0
 11
101.4852350523
 21
-64.2554061583
 31
0.0
  0
LINE
  5
28C
330
1F
100
AcDbEntity
  8
0
  6
Continuous
 62
     7
370
    15
100
AcDbLine
 10
117.6408698307
 20
-75.5864105989
 30
0.0
 11
116.3453897559
 21
-72.4976216888
 31
0.0
  0
LINE
  5
28D
330
1F
100
AcDbEntity
  8
0
  6
Continuous
 62
     7
370
    15
100
AcDbLine
 10
114.3529086925
 20
-89.2797146326
 30
0.0
 11
117.7458459268
 21
-79.9595232197
 31
0.0
  0
LINE
  5
28E
330
1F
100
AcDbEntity
  8
0
  6
Continuous
 62
     7
370
    15
100
AcDbLine
 10
108.4830724038
 20
-94.0949273888
 30
0.0
 11
111.4610961481
 21
-92.5618715733
 31
0.0
  0
LINE
  5
28F
330
1F
100
AcDbEntity
  8
0
  6
Continuous
 62
     7
370
    15
100
AcDbLine
 10
91.8019475788
 20
-90.8548055949
 30
0.0
 11
104.0174355391
 21
-94.5086493315
 31
0.0
  0
LINE
  5
290
330
1F
100
AcDbEntity
  8
0
  6
Continuous
 62
     7
370
    15
100
AcDbLine
 10
87.5878668537
 20
-86.0073000804
 30
0.0
 11
87.6109627197
 21
-86.1394458854
 31
0.0
  0
LINE
  5
291
330
1F
100
AcDbEntity
  8
0
  6
Continuous
 62
     7
370
    15
100
AcDbLine
 10
26.5083961905
 20
-63.2661905696
 30
0.0
 11
83.4897447018
 21
-81.3205382803
 31
0.0
  0
LINE
  5
292
330
1F
100
AcDbEntity
  8
0
  6
Continuous
 62
     7
370
    15
100
AcDbLine
 10
24.3299725002
 20
-69.1748703538
 30
0.0
 11
26.5083961905
 21
-63.2661905696
 31
0.0
  0
LINE
  5
293
330
1F
100
AcDbEntity
  8
0
  6
Continuous
 62
     7
370
    15
100
AcDbLine
 10
23.1516973069
 20
-87.9166093266
 30
0.0
 11
24.3299725002
 21
-69.1748703538
 31
0.0
  0
LINE
  5
294
330
1F
100
AcDbEntity
  8
0
  6
Continuous
 62
     7
370
    15
100
AcDbLine
 10
0.0
 20
-91.9629617504
 30
0.0
 11
23.1516973069
 21
-87.9166093266
 31
0.0
  0
LINE
  5
295
330
1F
100
AcDbEntity
  8
0
  6
Continuous
 62
     7
370
    15
100
AcDbLine
 10
-23.1516973069
 20
-87.9166093266
 30
0.0
 11
0.0
 21
-91.9629617504
 31
0.0
  0
LINE
  5
296
330
1F
100
AcDbEntity
  8
0
  6
Continuous
 62
     7
370
    15
100
AcDbLine
 10
-24.3299725002
 20
-69.1748703538
 30
0.0
 11
-23.1516973069
 21
-87.9166093266
 31
0.0
  0
LINE
  5
297
330
1F
100
AcDbEntity
  8
0
  6
Continuous
 62
     7
370
    15
100
AcDbLine
 10
-26.5083961905
 20
-63.2661905696
 30
0.0
 11
-24.3299725002
 21
-69.1748703538
 31
0.0
  0
LINE
  5
298
330
1F
100
AcDbEntity
  8
0
  6
Continuous
 62
     7
370
    15
100
AcDbLine
 10
-83.4897447018
 20
-81.3205382803
 30
0.0
 11
-26.5083961905
 21
-63.2661905696
 31
0.0
  0
LINE
  5
299
330
1F
100
AcDbEntity
  8
0
  6
Continuous
 62
     7
370
    15
100
AcDbLine
 10
-87.6109627197
 20
-86.1394458854
 30
0.0
 11
-87.5878668537
 21
-86.0073000804
 31
0.0
  0
LINE
  5
29A
330
1F
100
AcDbEntity
  8
0
  6
Continuous
 62
     7
370
    15
100
AcDbLine
 10
-104.0174355391
 20
-94.5086493315
 30
0.0
 11
-91.8019475788
 21
-90.8548055949
 31
0.0
  0
LINE
  5
29B
330
1F
100
AcDbEntity
  8
0
  6
Continuous
 62
     7
370
    15
100
AcDbLine
 10
-111.4610961481
 20
-92.5618715733
 30
0.0
 11
-108.4830724038
 21
-94.0949273888
 31
0.0
  0
LINE
  5
29C
330
1F
100
AcDbEntity
  8
0
  6
Continuous
 62
     7
370
    15
100
AcDbLine
 10
-117.7458459268
 20
-79.9595232197
 30
0.0
 11
-114.3529086925
 21
-89.2797146326
 31
0.0
  0
LINE
  5
29D
330
1F
100
AcDbEntity
  8
0
  6
Continuous
 62
     7
370
    15
100
AcDbLine
 10
-116.3453897559
 20
-72.4976216888
 30
0.0
 11
-117.6408698307
 21
-75.5864105989
 31
0.0
  0
LINE
  5
29E
330
1F
100
AcDbEntity
  8
0
  6
Continuous
 62
     7
370
    15
100
AcDbLine
 10
-101.4852350523
 20
-64.2554061583
 30
0.0
 11
-113.1908504308
 21
-69.3098387445
 31
0.0
  0
LINE
  5
29F
330
1F
100
AcDbEntity
  8
0
  6
Continuous
 62
     7
370
    15
100
AcDbLine
 10
-95.1410189105
 20
-65.2592525693
 30
0.0
 11
-95.2436639401
 21
-65.172881679
 31
0.0
  0
LINE
  5
2A0
330
1F
100
AcDbEntity
  8
0
  6
Continuous
 62
     7
370
    15
100
AcDbLine
 10
-33.7364788182
 20
-43.4110889319
 30
0.0
 11
-88.9889623795
 21
-66.2145230972
 31
0.0
  0
LINE
  5
2A1
330
1F
100
AcDbEntity
  8
0
  6
Continuous
 62
     7
370
    15
100
AcDbLine
 10
-33.7364788182
 20
-42.9291154361
 30
0.0
 11
-33.7364788182
 21
-43.4110889319
 31
0.0
  0
LINE
  5
2A2
330
1F
100
AcDbEntity
  8
0
  6
Continuous
 62
     7
370
    15
100
AcDbLine
 10
-25.328619051
 20
-30.2065336305
 30
0.0
 11
-33.5644864995
 21
-42.3683986808
 31
0.0
  0
LINE
  5
2A3
330
1F
100
AcDbEntity
  8
0
  6
Continuous
 62
     7
370
    15
100
AcDbLine
 10
-24.9846344136
 20
29.0851001199
 30
0.0
 11
-24.9846344136
 21
-29.0851001199
 31
0.0
  0
LINE
  5
2A4
330
1F
100
AcDbEntity
  8
0
  6
Continuous
 62
     7
370
    15
100
AcDbLine
 10
-33.5644864995
 20
42.3683986808
 30
0.0
 11
-25.328619051
 21
30.2065336305
 31
0.0
  0
LINE
  5
2A5
330
1F
100
AcDbEntity
  8
0
  6
Continuous
 62
     7
370
    15
100
AcDbLine
 10
-33.7364788182
 20
43.4110889319
 30
0.0
 11
-33.7364788182
 21
42.9291154361
 31
0.0
  0
LINE
  5
2A6
330
1F
100
AcDbEntity
  8
0
  6
Continuous
 62
     7
370
    15
100
AcDbLine
 10
-88.9889623795
 20
66.2145230972
 30
0.0
 11
-33.7364788182
 21
43.4110889319
 31
0.0
  0
LINE
  5
2A7
330
1F
100
AcDbEntity
  8
0
  6
Continuous
 62
     7
370
    15
100
AcDbLine
 10
-95.2436639401
 20
65.172881679
 30
0.0
 11
-95.1410189105
 21
65.2592525693
 31
0.0
  0
LINE
  5
2A8
330
1F
100
AcDbEntity
  8
0
  6
Continuous
 62
     7
370
    15
100
AcDbLine
 10
-113.1908504308
 20
69.3098387445
 30
0.0
 11
-101.4852350523
 21
64.2554061583
 31
0.0
  0
LINE
  5
2A9
330
1F
100
AcDbEntity
  8
0
  6
Continuous
 62
     7
370
    15
100
AcDbLine
 10
-117.6408698307
 20
75.5864105989
 30
0.0
 11
-116.3453897559
 21
72.4976216888
 31
0.0
  0
LINE
  5
2AA
330
1F
100
AcDbEntity
  8
0
  6
Continuous
 62
     7
370
    15
100
AcDbLine
 10
-114.3529086925
 20
89.2797146326
 30
0.0
 11
-117.7458459268
 21
79.9595232197
 31
0.0
  0
LINE
  5
2AB
330
1F
100
AcDbEntity
  8
0
  6
Continuous
 62
     7
370
    15
100
AcDbLine
 10
-108.4830724038
 20
94.0949273888
 30
0.0
 11
-111.4610961481
 21
92.5618715733
 31
0.0
  0
LINE
  5
2AC
330
1F
100
AcDbEntity
  8
0
  6
Continuous
 62
     7
370
    15
100
AcDbLine
 10
-91.8019475788
 20
90.8548055949
 30
0.0
 11
-104.0174355391
 21
94.5086493315
 31
0.0
  0
LINE
  5
2AD
330
1F
100
AcDbEntity
  8
0
  6
Continuous
 62
     7
370
    15
100
AcDbLine
 10
-87.5878668537
 20
86.0073000804
 30
0.0
 11
-87.6109627197
 21
86.1394458854
 31
0.0
  0
LINE
  5
2AE
330
1F
100
AcDbEntity
  8
0
  6
Continuous
 62
     7
370
    15
100
AcDbLine
 10
-26.5083961905
 20
63.2661905696
 30
0.0
 11
-83.4897447018
 21
81.3205382803
 31
0.0
  0
LINE
  5
2AF
330
1F
100
AcDbEntity
  8
0
  6
Continuous
 62
     7
370
    15
100
AcDbLine
 10
-24.3299725002
 20
69.1748703538
 30
0.0
 11
-26.5083961905
 21
63.2661905696
 31
0.0
  0
LINE
  5
2B0
330
1F
100
AcDbEntity
  8
0
  6
Continuous
 62
     7
370
    15
100
AcDbLine
 10
-23.1516973069
 20
87.9166093266
 30
0.0
 11
-24.3299725002
 21
69.1748703538
 31
0.0
  0
LINE
  5
2B1
330
1F
100
AcDbEntity
  8
0
  6
Continuous
 62
     7
370
    15
100
AcDbLine
 10
0.0
 20
91.9629617504
 30
0.0
 11
-23.1516973069
 21
87.9166093266
 31
0.0
  0
LINE
  5
2B2
330
1F
100
AcDbEntity
  8
0
  6
Continuous
 62
     7
370
    15
100
AcDbLine
 10
23.1516973069
 20
87.9166093266
 30
0.0
 11
0.0
 21
91.9629617504
 31
0.0
  0
LINE
  5
2B3
330
1F
100
AcDbEntity
  8
0
  6
Continuous
 62
     7
370
    15
100
AcDbLine
 10
-111.2905909916
 20
78.0711935356
 30
0.0
 11
-112.6500926075
 21
77.4373517916
 31
0.0
  0
LINE
  5
2B4
330
1F
100
AcDbEntity
  8
0
  6
Continuous
 62
     7
370
    15
100
AcDbLine
 10
-111.2978968869
 20
74.5370816778
 30
0.0
 11
-109.938395271
 21
75.1709234218
 31
0.0
  0
LINE
  5
2B5
330
1F
100
AcDbEntity
  8
0
  6
Continuous
 62
     7
370
    15
100
AcDbLine
 10
-105.2941720911
 20
87.9283209249
 30
0.0
 11
-105.9280138351
 21
89.2878225408
 31
0.0
  0
LINE
  5
2B6
330
1F
100
AcDbEntity
  8
0
  6
Continuous
 62
     7
370
    15
100
AcDbLine
 10
-108.8282839489
 20
87.9356268203
 30
0.0
 11
-108.1944422049
 21
86.5761252044
 31
0.0
  0
LINE
  5
2B7
330
1F
100
AcDbEntity
  8
0
  6
Continuous
 62
     7
370
    15
100
AcDbLine
 10
-97.8993517444
 20
72.0674687398
 30
0.0
 11
-98.5331934884
 21
73.4269703556
 31
0.0
  0
LINE
  5
2B8
330
1F
100
AcDbEntity
  8
0
  6
Continuous
 62
     7
370
    15
100
AcDbLine
 10
-101.4334636023
 20
72.0747746351
 30
0.0
 11
-100.7996218583
 21
70.7152730192
 31
0.0
  0
LINE
  5
2B9
330
1F
100
AcDbEntity
  8
0
  6
Continuous
 62
     7
370
    15
100
AcDbLine
 10
-95.4370447017
 20
81.9319020244
 30
0.0
 11
-94.0775430859
 21
82.5657437684
 31
0.0
  0
LINE
  5
2BA
330
1F
100
AcDbEntity
  8
0
  6
Continuous
 62
     7
370
    15
100
AcDbLine
 10
-95.4297388064
 20
85.4660138823
 30
0.0
 11
-96.7892404223
 21
84.8321721383
 31
0.0
  0
LINE
  5
2BB
330
1F
100
AcDbEntity
  8
0
  6
Continuous
 62
     7
370
    15
100
AcDbLine
 10
94.0775430859
 20
82.5657437684
 30
0.0
 11
95.4370447017
 21
81.9319020244
 31
0.0
  0
LINE
  5
2BC
330
1F
100
AcDbEntity
  8
0
  6
Continuous
 62
     7
370
    15
100
AcDbLine
 10
96.7892404223
 20
84.8321721383
 30
0.0
 11
95.4297388064
 21
85.4660138823
 31
0.0
  0
LINE
  5
2BD
330
1F
100
AcDbEntity
  8
0
  6
Continuous
 62
     7
370
    15
100
AcDbLine
 10
98.5331934884
 20
73.4269703556
 30
0.0
 11
97.8993517444
 21
72.0674687398
 31
0.0
  0
LINE
  5
2BE
330
1F
100
AcDbEntity
  8
0
  6
Continuous
 62
     7
370
    15
100
AcDbLine
 10
100.7996218583
 20
70.7152730192
 30
0.0
 11
101.4334636023
 21
72.0747746351
 31
0.0
  0
LINE
  5
2BF
330
1F
100
AcDbEntity
  8
0
  6
Continuous
 62
     7
370
    15
100
AcDbLine
 10
112.6500926075
 20
77.4373517916
 30
0.0
 11
111.2905909916
 21
78.0711935356
 31
0.0
  0
LINE
  5
2C0
330
1F
100
AcDbEntity
  8
0
  6
Continuous
 62
     7
370
    15
100
AcDbLine
 10
109.938395271
 20
75.1709234218
 30
0.0
 11
111.2978968869
 21
74.5370816778
 31
0.0
  0
LINE
  5
2C1
330
1F
100
AcDbEntity
  8
0
  6
Continuous
 62
     7
370
    15
100
AcDbLine
 10
108.1944422049
 20
86.5761252044
 30
0.0
 11
108.8282839489
 21
87.9356268203
 31
0.0
  0
LINE
  5
2C2
330
1F
100
AcDbEntity
  8
0
  6
Continuous
 62
     7
370
    15
100
AcDbLine
 10
105.9280138351
 20
89.2878225408
 30
0.0
 11
105.2941720911
 21
87.9283209249
 31
0.0
  0
LINE
  5
2C3
330
1F
100
AcDbEntity
  8
0
  6
Continuous
 62
     7
370
    15
100
AcDbLine
 10
108.8282839489
 20
-87.9356268203
 30
0.0
 11
108.1944422049
 21
-86.5761252044
 31
0.0
  0
LINE
  5
2C4
330
1F
100
AcDbEntity
  8
0
  6
Continuous
 62
     7
370
    15
100
AcDbLine
 10
105.2941720911
 20
-87.9283209249
 30
0.0
 11
105.9280138351
 21
-89.2878225408
 31
0.0
  0
LINE
  5
2C5
330
1F
100
AcDbEntity
  8
0
  6
Continuous
 62
     7
370
    15
100
AcDbLine
 10
111.2905909916
 20
-78.0711935356
 30
0.0
 11
112.6500926075
 21
-77.4373517916
 31
0.0
  0
LINE
  5
2C6
330
1F
100
AcDbEntity
  8
0
  6
Continuous
 62
     7
370
    15
100
AcDbLine
 10
111.2978968869
 20
-74.5370816778
 30
0.0
 11
109.938395271
 21
-75.1709234218
 31
0.0
  0
LINE
  5
2C7
330
1F
100
AcDbEntity
  8
0
  6
Continuous
 62
     7
370
    15
100
AcDbLine
 10
97.8993517444
 20
-72.0674687398
 30
0.0
 11
98.5331934884
 21
-73.4269703556
 31
0.0
  0
LINE
  5
2C8
330
1F
100
AcDbEntity
  8
0
  6
Continuous
 62
     7
370
    15
100
AcDbLine
 10
101.4334636023
 20
-72.0747746351
 30
0.0
 11
100.7996218583
 21
-70.7152730192
 31
0.0
  0
LINE
  5
2C9
330
1F
100
AcDbEntity
  8
0
  6
Continuous
 62
     7
370
    15
100
AcDbLine
 10
95.4370447017
 20
-81.9319020244
 30
0.0
 11
94.0775430859
 21
-82.5657437684
 31
0.0
  0
LINE
  5
2CA
330
1F
100
AcDbEntity
  8
0
  6
Continuous
 62
     7
370
    15
100
AcDbLine
 10
95.4297388064
 20
-85.4660138823
 30
0.0
 11
96.7892404223
 21
-84.8321721383
 31
0.0
  0
LINE
  5
2CB
330
1F
100
AcDbEntity
  8
0
  6
Continuous
 62
     7
370
    15
100
AcDbLine
 10
-94.0775430859
 20
-82.5657437684
 30
0.0
 11
-95.4370447017
 21
-81.9319020244
 31
0.0
  0
LINE
  5
2CC
330
1F
100
AcDbEntity
  8
0
  6
Continuous
 62
     7
370
    15
100
AcDbLine
 10
-96.7892404223
 20
-84.8321721383
 30
0.0
 11
-95.4297388064
 21
-85.4660138823
 31
0.0
  0
LINE
  5
2CD
330
1F
100
AcDbEntity
  8
0
  6
Continuous
 62
     7
370
    15
100
AcDbLine
 10
-98.5331934884
 20
-73.4269703556
 30
0.0
 11
-97.8993517444
 21
-72.0674687398
 31
0.0
  0
LINE
  5
2CE
330
1F
100
AcDbEntity
  8
0
  6
Continuous
 62
     7
370
    15
100
AcDbLine
 10
-100.7996218583
 20
-70.7152730192
 30
0.0
 11
-101.4334636023
 21
-72.0747746351
 31
0.0
  0
LINE
  5
2CF
330
1F
100
AcDbEntity
  8
0
  6
Continuous
 62
     7
370
    15
100
AcDbLine
 10
-112.6500926075
 20
-77.4373517916
 30
0.0
 11
-111.2905909916
 21
-78.0711935356
 31
0.0
  0
LINE
  5
2D0
330
1F
100
AcDbEntity
  8
0
  6
Continuous
 62
     7
370
    15
100
AcDbLine
 10
-109.938395271
 20
-75.1709234218
 30
0.0
 11
-111.2978968869
 21
-74.5370816778
 31
0.0
  0
LINE
  5
2D1
330
1F
100
AcDbEntity
  8
0
  6
Continuous
 62
     7
370
    15
100
AcDbLine
 10
-108.1944422049
 20
-86.5761252044
 30
0.0
 11
-108.8282839489
 21
-87.9356268203
 31
0.0
  0
LINE
  5
2D2
330
1F
100
AcDbEntity
  8
0
  6
Continuous
 62
     7
370
    15
100
AcDbLine
 10
-105.9280138351
 20
-89.2878225408
 30
0.0
 11
-105.2941720911
 21
-87.9283209249
 31
0.0
  0
ARC
  5
2D3
330
1F
100
AcDbEntity
  8
0
  6
Continuous
 62
     7
370
    15
100
AcDbCircle
 10
-5.5534222964
 20
74.8034222964
 30
0.0
 40
0.5534222963979829
100
AcDbArc
 50
270.0
 51
0.0
  0
ARC
  5
2D4
330
1F
100
AcDbEntity
  8
0
  6
Continuous
 62
     7
370
    15
100
AcDbCircle
 10
-5.5534222964
 20
77.1965777036
 30
0.0
 40
0.5534222963979829
100
AcDbArc
 50
0.0
 51
90.0
  0
ARC
  5
2D5
330
1F
100
AcDbEntity
  8
0
  6
Continuous
 62
     7
370
    15
100
AcDbCircle
 10
-6.6965777036
 20
77.1965777036
 30
0.0
 40
0.5534222963979731
100
AcDbArc
 50
90.0
 51
180.0
  0
ARC
  5
2D6
330
1F
100
AcDbEntity
  8
0
  6
Continuous
 62
     7
370
    15
100
AcDbCircle
 10
-6.6965777036
 20
74.8034222964
 30
0.0
 40
0.5534222963979829
100
AcDbArc
 50
180.0
 51
270.0
  0
ARC
  5
2D7
330
1F
100
AcDbEntity
  8
0
  6
Continuous
 62
     7
370
    15
100
AcDbCircle
 10
-12.8034222964
 20
74.8034222964
 30
0.0
 40
0.5534222963979829
100
AcDbArc
 50
270.0
 51
0.0
  0
ARC
  5
2D8
330
1F
100
AcDbEntity
  8
0
  6
Continuous
 62
     7
370
    15
100
AcDbCircle
 10
-12.8034222964
 20
77.1965777036
 30
0.0
 40
0.5534222963979829
100
AcDbArc
 50
0.0
 51
90.0
  0
ARC
  5
2D9
330
1F
100
AcDbEntity
  8
0
  6
Continuous
 62
     7
370
    15
100
AcDbCircle
 10
-13.9465777036
 20
77.1965777036
 30
0.0
 40
0.5534222963979687
100
AcDbArc
 50
90.0
 51
180.0
  0
ARC
  5
2DA
330
1F
100
AcDbEntity
  8
0
  6
Continuous
 62
     7
370
    15
100
AcDbCircle
 10
-13.9465777036
 20
74.8034222964
 30
0.0
 40
0.5534222963979829
100
AcDbArc
 50
180.0
 51
270.0
  0
ARC
  5
2DB
330
1F
100
AcDbEntity
  8
0
  6
Continuous
 62
     7
370
    15
100
AcDbCircle
 10
-12.8034222964
 20
84.8034222964
 30
0.0
 40
0.553422296397974
100
AcDbArc
 50
270.0
 51
0.0
  0
ARC
  5
2DC
330
1F
100
AcDbEntity
  8
0
  6
Continuous
 62
     7
370
    15
100
AcDbCircle
 10
-12.8034222964
 20
87.1965777036
 30
0.0
 40
0.5534222963979829
100
AcDbArc
 50
0.0
 51
90.0
  0
ARC
  5
2DD
330
1F
100
AcDbEntity
  8
0
  6
Continuous
 62
     7
370
    15
100
AcDbCircle
 10
-13.9465777036
 20
87.1965777036
 30
0.0
 40
0.553422296397974
100
AcDbArc
 50
90.0
 51
180.0
  0
ARC
  5
2DE
330
1F
100
AcDbEntity
  8
0
  6
Continuous
 62
     7
370
    15
100
AcDbCircle
 10
-13.9465777036
 20
84.8034222964
 30
0.0
 40
0.5534222963979829
100
AcDbArc
 50
180.0
 51
270.0
  0
ARC
  5
2DF
330
1F
100
AcDbEntity
  8
0
  6
Continuous
 62
     7
370
    15
100
AcDbCircle
 10
-5.5534222964
 20
84.8034222964
 30
0.0
 40
0.5534222963979829
100
AcDbArc
 50
270.0
 51
0.0
  0
ARC
  5
2E0
330
1F
100
AcDbEntity
  8
0
  6
Continuous
 62
     7
370
    15
100
AcDbCircle
 10
-5.5534222964
 20
87.1965777036
 30
0.0
 40
0.5534222963979829
100
AcDbArc
 50
0.0
 51
90.0
  0
ARC
  5
2E1
330
1F
100
AcDbEntity
  8
0
  6
Continuous
 62
     7
370
    15
100
AcDbCircle
 10
-6.6965777036
 20
87.1965777036
 30
0.0
 40
0.5534222963979731
100
AcDbArc
 50
90.0
 51
180.0
  0
ARC
  5
2E2
330
1F
100
AcDbEntity
  8
0
  6
Continuous
 62
     7
370
    15
100
AcDbCircle
 10
-6.6965777036
 20
84.8034222964
 30
0.0
 40
0.5534222963979829
100
AcDbArc
 50
180.0
 51
270.0
  0
ARC
  5
2E3
330
1F
100
AcDbEntity
  8
0
  6
Continuous
 62
     7
370
    15
100
AcDbCircle
 10
12.8034222964
 20
77.1965777036
 30
0.0
 40
0.553422296397974
100
AcDbArc
 50
90.0
 51
180.0
  0
ARC
  5
2E4
330
1F
100
AcDbEntity
  8
0
  6
Continuous
 62
     7
370
    15
100
AcDbCircle
 10
12.8034222964
 20
74.8034222964
 30
0.0
 40
0.5534222963979829
100
AcDbArc
 50
180.0
 51
270.0
  0
ARC
  5
2E5
330
1F
100
AcDbEntity
  8
0
  6
Continuous
 62
     7
370
    15
100
AcDbCircle
 10
13.9465777036
 20
74.8034222964
 30
0.0
 40
0.553422296397974
100
AcDbArc
 50
270.0
 51
0.0
  0
ARC
  5
2E6
330
1F
100
AcDbEntity
  8
0
  6
Continuous
 62
     7
370
    15
100
AcDbCircle
 10
13.9465777036
 20
77.1965777036
 30
0.0
 40
0.5534222963979829
100
AcDbArc
 50
0.0
 51
90.0
  0
ARC
  5
2E7
330
1F
100
AcDbEntity
  8
0
  6
Continuous
 62
     7
370
    15
100
AcDbCircle
 10
5.5534222964
 20
77.1965777036
 30
0.0
 40
0.5534222963979829
100
AcDbArc
 50
90.0
 51
180.0
  0
ARC
  5
2E8
330
1F
100
AcDbEntity
  8
0
  6
Continuous
 62
     7
370
    15
100
AcDbCircle
 10
5.5534222964
 20
74.8034222964
 30
0.0
 40
0.5534222963979829
100
AcDbArc
 50
180.0
 51
270.0
  0
ARC
  5
2E9
330
1F
100
AcDbEntity
  8
0
  6
Continuous
 62
     7
370
    15
100
AcDbCircle
 10
6.6965777036
 20
74.8034222964
 30
0.0
 40
0.5534222963979731
100
AcDbArc
 50
270.0
 51
0.0
  0
ARC
  5
2EA
330
1F
100
AcDbEntity
  8
0
  6
Continuous
 62
     7
370
    15
100
AcDbCircle
 10
6.6965777036
 20
77.1965777036
 30
0.0
 40
0.5534222963979829
100
AcDbArc
 50
0.0
 51
90.0
  0
ARC
  5
2EB
330
1F
100
AcDbEntity
  8
0
  6
Continuous
 62
     7
370
    15
100
AcDbCircle
 10
5.5534222964
 20
87.1965777036
 30
0.0
 40
0.5534222963979829
100
AcDbArc
 50
90.0
 51
180.0
  0
ARC
  5
2EC
330
1F
100
AcDbEntity
  8
0
  6
Continuous
 62
     7
370
    15
100
AcDbCircle
 10
5.5534222964
 20
84.8034222964
 30
0.0
 40
0.5534222963979829
100
AcDbArc
 50
180.0
 51
270.0
  0
ARC
  5
2ED
330
1F
100
AcDbEntity
  8
0
  6
Continuous
 62
     7
370
    15
100
AcDbCircle
 10
6.6965777036
 20
84.8034222964
 30
0.0
 40
0.5534222963979731
100
AcDbArc
 50
270.0
 51
0.0
  0
ARC
  5
2EE
330
1F
100
AcDbEntity
  8
0
  6
Continuous
 62
     7
370
    15
100
AcDbCircle
 10
6.6965777036
 20
87.1965777036
 30
0.0
 40
0.5534222963979829
100
AcDbArc
 50
0.0
 51
90.0
  0
ARC
  5
2EF
330
1F
100
AcDbEntity
  8
0
  6
Continuous
 62
     7
370
    15
100
AcDbCircle
 10
12.8034222964
 20
87.1965777036
 30
0.0
 40
0.5534222963979829
100
AcDbArc
 50
90.0
 51
180.0
  0
ARC
  5
2F0
330
1F
100
AcDbEntity
  8
0
  6
Continuous
 62
     7
370
    15
100
AcDbCircle
 10
12.8034222964
 20
84.8034222964
 30
0.0
 40
0.5534222963979829
100
AcDbArc
 50
180.0
 51
270.0
  0
ARC
  5
2F1
330
1F
100
AcDbEntity
  8
0
  6
Continuous
 62
     7
370
    15
100
AcDbCircle
 10
13.9465777036
 20
84.8034222964
 30
0.0
 40
0.5534222963979687
100
AcDbArc
 50
270.0
 51
0.0
  0
ARC
  5
2F2
330
1F
100
AcDbEntity
  8
0
  6
Continuous
 62
     7
370
    15
100
AcDbCircle
 10
13.9465777036
 20
87.1965777036
 30
0.0
 40
0.5534222963979829
100
AcDbArc
 50
0.0
 51
90.0
  0
ARC
  5
2F3
330
1F
100
AcDbEntity
  8
0
  6
Continuous
 62
     7
370
    15
100
AcDbCircle
 10
-5.5534222964
 20
-87.1965777036
 30
0.0
 40
0.5534222963979829
100
AcDbArc
 50
270.0
 51
0.0
  0
ARC
  5
2F4
330
1F
100
AcDbEntity
  8
0
  6
Continuous
 62
     7
370
    15
100
AcDbCircle
 10
-5.5534222964
 20
-84.8034222964
 30
0.0
 40
0.5534222963979829
100
AcDbArc
 50
0.0
 51
90.0
  0
ARC
  5
2F5
330
1F
100
AcDbEntity
  8
0
  6
Continuous
 62
     7
370
    15
100
AcDbCircle
 10
-6.6965777036
 20
-84.8034222964
 30
0.0
 40
0.5534222963979829
100
AcDbArc
 50
90.0
 51
180.0
  0
ARC
  5
2F6
330
1F
100
AcDbEntity
  8
0
  6
Continuous
 62
     7
370
    15
100
AcDbCircle
 10
-6.6965777036
 20
-87.1965777036
 30
0.0
 40
0.5534222963979829
100
AcDbArc
 50
180.0
 51
270.0
  0
ARC
  5
2F7
330
1F
100
AcDbEntity
  8
0
  6
Continuous
 62
     7
370
    15
100
AcDbCircle
 10
-12.8034222964
 20
-87.1965777036
 30
0.0
 40
0.5534222963979829
100
AcDbArc
 50
270.0
 51
0.0
  0
ARC
  5
2F8
330
1F
100
AcDbEntity
  8
0
  6
Continuous
 62
     7
370
    15
100
AcDbCircle
 10
-12.8034222964
 20
-84.8034222964
 30
0.0
 40
0.5534222963979829
100
AcDbArc
 50
0.0
 51
90.0
  0
ARC
  5
2F9
330
1F
100
AcDbEntity
  8
0
  6
Continuous
 62
     7
370
    15
100
AcDbCircle
 10
-13.9465777036
 20
-84.8034222964
 30
0.0
 40
0.5534222963979971
100
AcDbArc
 50
90.0
 51
180.0
  0
ARC
  5
2FA
330
1F
100
AcDbEntity
  8
0
  6
Continuous
 62
     7
370
    15
100
AcDbCircle
 10
-13.9465777036
 20
-87.1965777036
 30
0.0
 40
0.5534222963979829
100
AcDbArc
 50
180.0
 51
270.0
  0
ARC
  5
2FB
330
1F
100
AcDbEntity
  8
0
  6
Continuous
 62
     7
370
    15
100
AcDbCircle
 10
12.8034222964
 20
-84.8034222964
 30
0.0
 40
0.553422296397974
100
AcDbArc
 50
90.0
 51
180.0
  0
ARC
  5
2FC
330
1F
100
AcDbEntity
  8
0
  6
Continuous
 62
     7
370
    15
100
AcDbCircle
 10
12.8034222964
 20
-87.1965777036
 30
0.0
 40
0.5534222963979829
100
AcDbArc
 50
180.0
 51
270.0
  0
ARC
  5
2FD
330
1F
100
AcDbEntity
  8
0
  6
Continuous
 62
     7
370
    15
100
AcDbCircle
 10
13.9465777036
 20
-87.1965777036
 30
0.0
 40
0.553422296397974
100
AcDbArc
 50
270.0
 51
0.0
  0
ARC
  5
2FE
330
1F
100
AcDbEntity
  8
0
  6
Continuous
 62
     7
370
    15
100
AcDbCircle
 10
13.9465777036
 20
-84.8034222964
 30
0.0
 40
0.5534222963979829
100
AcDbArc
 50
0.0
 51
90.0
  0
ARC
  5
2FF
330
1F
100
AcDbEntity
  8
0
  6
Continuous
 62
     7
370
    15
100
AcDbCircle
 10
5.5534222964
 20
-84.8034222964
 30
0.0
 40
0.5534222963979829
100
AcDbArc
 50
90.0
 51
180.0
  0
ARC
  5
300
330
1F
100
AcDbEntity
  8
0
  6
Continuous
 62
     7
370
    15
100
AcDbCircle
 10
5.5534222964
 20
-87.1965777036
 30
0.0
 40
0.5534222963979829
100
AcDbArc
 50
180.0
 51
270.0
  0
ARC
  5
301
330
1F
100
AcDbEntity
  8
0
  6
Continuous
 62
     7
370
    15
100
AcDbCircle
 10
6.6965777036
 20
-87.1965777036
 30
0.0
 40
0.5534222963979731
100
AcDbArc
 50
270.0
 51
0.0
  0
ARC
  5
302
330
1F
100
AcDbEntity
  8
0
  6
Continuous
 62
     7
370
    15
100
AcDbCircle
 10
6.6965777036
 20
-84.8034222964
 30
0.0
 40
0.5534222963979829
100
AcDbArc
 50
0.0
 51
90.0
  0
ARC
  5
303
330
1F
100
AcDbEntity
  8
0
  6
Continuous
 62
     7
370
    15
100
AcDbCircle
 10
5.5534222964
 20
-74.8034222964
 30
0.0
 40
0.5534222963979829
100
AcDbArc
 50
90.0
 51
180.0
  0
ARC
  5
304
330
1F
100
AcDbEntity
  8
0
  6
Continuous
 62
     7
370
    15
100
AcDbCircle
 10
5.5534222964
 20
-77.1965777036
 30
0.0
 40
0.5534222963979829
100
AcDbArc
 50
180.0
 51
270.0
  0
ARC
  5
305
330
1F
100
AcDbEntity
  8
0
  6
Continuous
 62
     7
370
    15
100
AcDbCircle
 10
6.6965777036
 20
-77.1965777036
 30
0.0
 40
0.5534222963979731
100
AcDbArc
 50
270.0
 51
0.0
  0
ARC
  5
306
330
1F
100
AcDbEntity
  8
0
  6
Continuous
 62
     7
370
    15
100
AcDbCircle
 10
6.6965777036
 20
-74.8034222964
 30
0.0
 40
0.5534222963979829
100
AcDbArc
 50
0.0
 51
90.0
  0
ARC
  5
307
330
1F
100
AcDbEntity
  8
0
  6
Continuous
 62
     7
370
    15
100
AcDbCircle
 10
12.8034222964
 20
-74.8034222964
 30
0.0
 40
0.5534222963979829
100
AcDbArc
 50
90.0
 51
180.0
  0
ARC
  5
308
330
1F
100
AcDbEntity
  8
0
  6
Continuous
 62
     7
370
    15
100
AcDbCircle
 10
12.8034222964
 20
-77.1965777036
 30
0.0
 40
0.5534222963979829
100
AcDbArc
 50
180.0
 51
270.0
  0
ARC
  5
309
330
1F
100
AcDbEntity
  8
0
  6
Continuous
 62
     7
370
    15
100
AcDbCircle
 10
13.9465777036
 20
-77.1965777036
 30
0.0
 40
0.5534222963979971
100
AcDbArc
 50
270.0
 51
0.0
  0
ARC
  5
30A
330
1F
100
AcDbEntity
  8
0
  6
Continuous
 62
     7
370
    15
100
AcDbCircle
 10
13.9465777036
 20
-74.8034222964
 30
0.0
 40
0.5534222963979829
100
AcDbArc
 50
0.0
 51
90.0
  0
ARC
  5
30B
330
1F
100
AcDbEntity
  8
0
  6
Continuous
 62
     7
370
    15
100
AcDbCircle
 10
-12.8034222964
 20
-77.1965777036
 30
0.0
 40
0.553422296397974
100
AcDbArc
 50
270.0
 51
0.0
  0
ARC
  5
30C
330
1F
100
AcDbEntity
  8
0
  6
Continuous
 62
     7
370
    15
100
AcDbCircle
 10
-12.8034222964
 20
-74.8034222964
 30
0.0
 40
0.5534222963979829
100
AcDbArc
 50
0.0
 51
90.0
  0
ARC
  5
30D
330
1F
100
AcDbEntity
  8
0
  6
Continuous
 62
     7
370
    15
100
AcDbCircle
 10
-13.9465777036
 20
-74.8034222964
 30
0.0
 40
0.5534222963979829
100
AcDbArc
 50
90.0
 51
180.0
  0
ARC
  5
30E
330
1F
100
AcDbEntity
  8
0
  6
Continuous
 62
     7
370
    15
100
AcDbCircle
 10
-13.9465777036
 20
-77.1965777036
 30
0.0
 40
0.5534222963979829
100
AcDbArc
 50
180.0
 51
270.0
  0
ARC
  5
30F
330
1F
100
AcDbEntity
  8
0
  6
Continuous
 62
     7
370
    15
100
AcDbCircle
 10
-5.5534222964
 20
-77.1965777036
 30
0.0
 40
0.5534222963979829
100
AcDbArc
 50
270.0
 51
0.0
  0
ARC
  5
310
330
1F
100
AcDbEntity
  8
0
  6
Continuous
 62
     7
370
    15
100
AcDbCircle
 10
-5.5534222964
 20
-74.8034222964
 30
0.0
 40
0.5534222963979829
100
AcDbArc
 50
0.0
 51
90.0
  0
ARC
  5
311
330
1F
100
AcDbEntity
  8
0
  6
Continuous
 62
     7
370
    15
100
AcDbCircle
 10
-6.6965777036
 20
-74.8034222964
 30
0.0
 40
0.5534222963979829
100
AcDbArc
 50
90.0
 51
180.0
  0
ARC
  5
312
330
1F
100
AcDbEntity
  8
0
  6
Continuous
 62
     7
370
    15
100
AcDbCircle
 10
-6.6965777036
 20
-77.1965777036
 30
0.0
 40
0.5534222963979829
100
AcDbArc
 50
180.0
 51
270.0
  0
ARC
  5
313
330
1F
100
AcDbEntity
  8
0
  6
Continuous
 62
     7
370
    15
100
AcDbCircle
 10
-19.0053604761
 20
-7.0
 30
0.0
 40
1.125
100
AcDbArc
 50
180.0
 51
0.0
  0
ARC
  5
314
330
1F
100
AcDbEntity
  8
0
  6
Continuous
 62
     7
370
    15
100
AcDbCircle
 10
-19.0053604761
 20
7.0
 30
0.0
 40
1.125
100
AcDbArc
 50
0.0
 51
180.0
  0
ARC
  5
315
330
1F
100
AcDbEntity
  8
0
  6
Continuous
 62
     7
370
    15
100
AcDbCircle
 10
19.0053604761
 20
7.0
 30
0.0
 40
1.125
100
AcDbArc
 50
0.0
 51
180.0
  0
ARC
  5
316
330
1F
100
AcDbEntity
  8
0
  6
Continuous
 62
     7
370
    15
100
AcDbCircle
 10
19.0053604761
 20
-7.0
 30
0.0
 40
1.125
100
AcDbArc
 50
180.0
 51
0.0
  0
ARC
  5
317
330
1F
100
AcDbEntity
  8
0
  6
Continuous
 62
     7
370
    15
100
AcDbCircle
 10
-10.2
 20
58.1413708795
 30
0.0
 40
1.125000000000005
100
AcDbArc
 50
180.0
 51
0.0
  0
ARC
  5
318
330
1F
100
AcDbEntity
  8
0
  6
Continuous
 62
     7
370
    15
100
AcDbCircle
 10
-10.2
 20
70.3413708795
 30
0.0
 40
1.125000000000004
100
AcDbArc
 50
0.0
 51
180.0
  0
ARC
  5
319
330
1F
100
AcDbEntity
  8
0
  6
Continuous
 62
     7
370
    15
100
AcDbCircle
 10
10.2
 20
70.3413708795
 30
0.0
 40
1.125000000000009
100
AcDbArc
 50
0.0
 51
180.0
  0
ARC
  5
31A
330
1F
100
AcDbEntity
  8
0
  6
Continuous
 62
     7
370
    15
100
AcDbCircle
 10
10.2
 20
58.1413708795
 30
0.0
 40
1.125
100
AcDbArc
 50
180.0
 51
0.0
  0
ARC
  5
31B
330
1F
100
AcDbEntity
  8
0
  6
Continuous
 62
     7
370
    15
100
AcDbCircle
 10
-10.2
 20
-70.3413708795
 30
0.0
 40
1.125000000000005
100
AcDbArc
 50
180.0
 51
0.0
  0
ARC
  5
31C
330
1F
100
AcDbEntity
  8
0
  6
Continuous
 62
     7
370
    15
100
AcDbCircle
 10
-10.2
 20
-58.1413708795
 30
0.0
 40
1.125
100
AcDbArc
 50
0.0
 51
180.0
  0
ARC
  5
31D
330
1F
100
AcDbEntity
  8
0
  6
Continuous
 62
     7
370
    15
100
AcDbCircle
 10
10.2
 20
-58.1413708795
 30
0.0
 40
1.125000000000002
100
AcDbArc
 50
0.0
 51
180.0
  0
ARC
  5
31E
330
1F
100
AcDbEntity
  8
0
  6
Continuous
 62
     7
370
    15
100
AcDbCircle
 10
10.2
 20
-70.3413708795
 30
0.0
 40
1.125000000000004
100
AcDbArc
 50
180.0
 51
0.0
  0
ARC
  5
31F
330
1F
100
AcDbEntity
  8
0
  6
Continuous
 62
     7
370
    15
100
AcDbCircle
 10
0.0
 20
-76.0
 30
0.0
 40
1.599999999999993
100
AcDbArc
 50
0.0
 51
180.0
  0
ARC
  5
320
330
1F
100
AcDbEntity
  8
0
  6
Continuous
 62
     7
370
    15
100
AcDbCircle
 10
0.0
 20
-86.15
 30
0.0
 40
1.599999999999997
100
AcDbArc
 50
180.0
 51
0.0
  0
ARC
  5
321
330
1F
100
AcDbEntity
  8
0
  6
Continuous
 62
     7
370
    15
100
AcDbCircle
 10
-9.5
 20
28.9319840185
 30
0.0
 40
1.599999999999998
100
AcDbArc
 50
180.0
 51
0.0
  0
ARC
  5
322
330
1F
100
AcDbEntity
  8
0
  6
Continuous
 62
     7
370
    15
100
AcDbCircle
 10
-9.5
 20
46.1819840185
 30
0.0
 40
1.6
100
AcDbArc
 50
0.0
 51
180.0
  0
ARC
  5
323
330
1F
100
AcDbEntity
  8
0
  6
Continuous
 62
     7
370
    15
100
AcDbCircle
 10
9.5
 20
-28.9319840185
 30
0.0
 40
1.599999999999998
100
AcDbArc
 50
0.0
 51
180.0
  0
ARC
  5
324
330
1F
100
AcDbEntity
  8
0
  6
Continuous
 62
     7
370
    15
100
AcDbCircle
 10
9.5
 20
-46.1819840185
 30
0.0
 40
1.6
100
AcDbArc
 50
180.0
 51
0.0
  0
ARC
  5
325
330
1F
100
AcDbEntity
  8
0
  6
Continuous
 62
     7
370
    15
100
AcDbCircle
 10
9.5
 20
46.1819840185
 30
0.0
 40
1.599999999999998
100
AcDbArc
 50
0.0
 51
180.0
  0
ARC
  5
326
330
1F
100
AcDbEntity
  8
0
  6
Continuous
 62
     7
370
    15
100
AcDbCircle
 10
9.5
 20
28.9319840185
 30
0.0
 40
1.6
100
AcDbArc
 50
180.0
 51
0.0
  0
ARC
  5
327
330
1F
100
AcDbEntity
  8
0
  6
Continuous
 62
     7
370
    15
100
AcDbCircle
 10
-9.5
 20
-28.9319840185
 30
0.0
 40
1.599999999999998
100
AcDbArc
 50
0.0
 51
180.0
  0
ARC
  5
328
330
1F
100
AcDbEntity
  8
0
  6
Continuous
 62
     7
370
    15
100
AcDbCircle
 10
-9.5
 20
-46.1819840185
 30
0.0
 40
1.6
100
AcDbArc
 50
180.0
 51
0.0
  0
ARC
  5
329
330
1F
100
AcDbEntity
  8
0
  6
Continuous
 62
     7
370
    15
100
AcDbCircle
 10
12.75
 20
-6.75
 30
0.0
 40
2.000000000000013
100
AcDbArc
 50
270.0
 51
0.0
  0
ARC
  5
32A
330
1F
100
AcDbEntity
  8
0
  6
Continuous
 62
     7
370
    15
100
AcDbCircle
 10
12.75
 20
6.75
 30
0.0
 40
2.000000000000011
100
AcDbArc
 50
0.0
 51
90.0
  0
ARC
  5
32B
330
1F
100
AcDbEntity
  8
0
  6
Continuous
 62
     7
370
    15
100
AcDbCircle
 10
-12.75
 20
6.75
 30
0.0
 40
2.00000000000002
100
AcDbArc
 50
90.0
 51
180.0
  0
ARC
  5
32C
330
1F
100
AcDbEntity
  8
0
  6
Continuous
 62
     7
370
    15
100
AcDbCircle
 10
-12.75
 20
-6.75
 30
0.0
 40
2.000000000000012
100
AcDbArc
 50
180.0
 51
270.0
  0
ARC
  5
32D
330
1F
100
AcDbEntity
  8
0
  6
Continuous
 62
     7
370
    15
100
AcDbCircle
 10
3.1
 20
31.6413708795
 30
0.0
 40
2.000000000000011
100
AcDbArc
 50
270.0
 51
0.0
  0
ARC
  5
32E
330
1F
100
AcDbEntity
  8
0
  6
Continuous
 62
     7
370
    15
100
AcDbCircle
 10
3.1
 20
42.8913708795
 30
0.0
 40
2.000000000000011
100
AcDbArc
 50
0.0
 51
90.0
  0
ARC
  5
32F
330
1F
100
AcDbEntity
  8
0
  6
Continuous
 62
     7
370
    15
100
AcDbCircle
 10
-3.1
 20
42.8913708795
 30
0.0
 40
2.000000000000016
100
AcDbArc
 50
90.0
 51
180.0
  0
ARC
  5
330
330
1F
100
AcDbEntity
  8
0
  6
Continuous
 62
     7
370
    15
100
AcDbCircle
 10
-3.1
 20
31.6413708795
 30
0.0
 40
2.000000000000014
100
AcDbArc
 50
180.0
 51
270.0
  0
ARC
  5
331
330
1F
100
AcDbEntity
  8
0
  6
Continuous
 62
     7
370
    15
100
AcDbCircle
 10
0.0
 20
76.0
 30
0.0
 40
1.599999999999994
100
AcDbArc
 50
180.0
 51
0.0
  0
ARC
  5
332
330
1F
100
AcDbEntity
  8
0
  6
Continuous
 62
     7
370
    15
100
AcDbCircle
 10
0.0
 20
86.15
 30
0.0
 40
1.599999999999997
100
AcDbArc
 50
0.0
 51
180.0
  0
ARC
  5
333
330
1F
100
AcDbEntity
  8
0
  6
Continuous
 62
     7
370
    15
100
AcDbCircle
 10
3.1
 20
58.1413708795
 30
0.0
 40
2.000000000000008
100
AcDbArc
 50
270.0
 51
0.0
  0
ARC
  5
334
330
1F
100
AcDbEntity
  8
0
  6
Continuous
 62
     7
370
    15
100
AcDbCircle
 10
3.1
 20
69.3913708795
 30
0.0
 40
2.0
100
AcDbArc
 50
0.0
 51
90.0
  0
ARC
  5
335
330
1F
100
AcDbEntity
  8
0
  6
Continuous
 62
     7
370
    15
100
AcDbCircle
 10
-3.1
 20
69.3913708795
 30
0.0
 40
2.000000000000028
100
AcDbArc
 50
90.0
 51
180.0
  0
ARC
  5
336
330
1F
100
AcDbEntity
  8
0
  6
Continuous
 62
     7
370
    15
100
AcDbCircle
 10
-3.1
 20
58.1413708795
 30
0.0
 40
2.000000000000014
100
AcDbArc
 50
180.0
 51
270.0
  0
ARC
  5
337
330
1F
100
AcDbEntity
  8
0
  6
Continuous
 62
     7
370
    15
100
AcDbCircle
 10
3.1
 20
-69.3913708795
 30
0.0
 40
2.000000000000017
100
AcDbArc
 50
270.0
 51
0.0
  0
ARC
  5
338
330
1F
100
AcDbEntity
  8
0
  6
Continuous
 62
     7
370
    15
100
AcDbCircle
 10
3.1
 20
-58.1413708795
 30
0.0
 40
2.000000000000014
100
AcDbArc
 50
0.0
 51
90.0
  0
ARC
  5
339
330
1F
100
AcDbEntity
  8
0
  6
Continuous
 62
     7
370
    15
100
AcDbCircle
 10
-3.1
 20
-58.1413708795
 30
0.0
 40
2.000000000000025
100
AcDbArc
 50
90.0
 51
180.0
  0
ARC
  5
33A
330
1F
100
AcDbEntity
  8
0
  6
Continuous
 62
     7
370
    15
100
AcDbCircle
 10
-3.1
 20
-69.3913708795
 30
0.0
 40
2.0
100
AcDbArc
 50
180.0
 51
270.0
  0
ARC
  5
33B
330
1F
100
AcDbEntity
  8
0
  6
Continuous
 62
     7
370
    15
100
AcDbCircle
 10
3.1
 20
-42.8913708795
 30
0.0
 40
2.000000000000014
100
AcDbArc
 50
270.0
 51
0.0
  0
ARC
  5
33C
330
1F
100
AcDbEntity
  8
0
  6
Continuous
 62
     7
370
    15
100
AcDbCircle
 10
3.1
 20
-31.6413708795
 30
0.0
 40
2.000000000000014
100
AcDbArc
 50
0.0
 51
90.0
  0
ARC
  5
33D
330
1F
100
AcDbEntity
  8
0
  6
Continuous
 62
     7
370
    15
100
AcDbCircle
 10
-3.1
 20
-31.6413708795
 30
0.0
 40
2.000000000000025
100
AcDbArc
 50
90.0
 51
180.0
  0
ARC
  5
33E
330
1F
100
AcDbEntity
  8
0
  6
Continuous
 62
     7
370
    15
100
AcDbCircle
 10
-3.1
 20
-42.8913708795
 30
0.0
 40
2.000000000000011
100
AcDbArc
 50
180.0
 51
270.0
  0
ARC
  5
33F
330
1F
100
AcDbEntity
  8
0
  6
Continuous
 62
     7
370
    15
100
AcDbCircle
 10
81.6774590136
 20
87.0402953192
 30
0.0
 40
6.000000000000019
100
AcDbArc
 50
287.5806291979
 51
350.0862285636
  0
ARC
  5
340
330
1F
100
AcDbEntity
  8
0
  6
Continuous
 62
     7
370
    15
100
AcDbCircle
 10
93.5213705598
 20
85.1064506465
 30
0.0
 40
6.000000000000167
100
AcDbArc
 50
106.6527476226
 51
170.0862285636
  0
ARC
  5
341
330
1F
100
AcDbEntity
  8
0
  6
Continuous
 62
     7
370
    15
100
AcDbCircle
 10
105.7368585201
 20
88.7602943831
 30
0.0
 40
5.99999999999982
100
AcDbArc
 50
62.7610588807
 51
106.6527476226
  0
ARC
  5
342
330
1F
100
AcDbEntity
  8
0
  6
Continuous
 62
     7
370
    15
100
AcDbCircle
 10
108.7148822645
 20
87.2272385676
 30
0.0
 40
6.000000000000052
100
AcDbArc
 50
20.0036096875
 51
62.7610588807
  0
ARC
  5
343
330
1F
100
AcDbEntity
  8
0
  6
Continuous
 62
     7
370
    15
100
AcDbCircle
 10
112.1078194988
 20
77.9070471548
 30
0.0
 40
6.000000000000251
100
AcDbArc
 50
337.2461604944
 51
20.0036096875
  0
ARC
  5
344
330
1F
100
AcDbEntity
  8
0
  6
Continuous
 62
     7
370
    15
100
AcDbCircle
 10
110.812339424
 20
74.8182582447
 30
0.0
 40
5.999999999999702
100
AcDbArc
 50
293.3544717524
 51
337.2461604944
  0
ARC
  5
345
330
1F
100
AcDbEntity
  8
0
  6
Continuous
 62
     7
370
    15
100
AcDbCircle
 10
99.1067240454
 20
69.7638256585
 30
0.0
 40
5.99999999999986
100
AcDbArc
 50
229.9209908114
 51
293.3544717525
  0
ARC
  5
346
330
1F
100
AcDbEntity
  8
0
  6
Continuous
 62
     7
370
    15
100
AcDbCircle
 10
91.2779588053
 20
60.6683085898
 30
0.0
 40
5.999999999999999
100
AcDbArc
 50
49.9209908114
 51
112.4265901771
  0
ARC
  5
347
330
1F
100
AcDbEntity
  8
0
  6
Continuous
 62
     7
370
    15
100
AcDbCircle
 10
32.7364788182
 20
42.9291154361
 30
0.0
 40
0.9999999999998904
100
AcDbArc
 50
325.894619348
 51
0.0
  0
ARC
  5
348
330
1F
100
AcDbEntity
  8
0
  6
Continuous
 62
     7
370
    15
100
AcDbCircle
 10
26.9846344136
 20
29.0851001199
 30
0.0
 40
2.000000000000047
100
AcDbArc
 50
145.894619348
 51
180.0
  0
ARC
  5
349
330
1F
100
AcDbEntity
  8
0
  6
Continuous
 62
     7
370
    15
100
AcDbCircle
 10
26.9846344136
 20
-29.0851001199
 30
0.0
 40
1.999999999999973
100
AcDbArc
 50
180.0
 51
214.105380652
  0
ARC
  5
34A
330
1F
100
AcDbEntity
  8
0
  6
Continuous
 62
     7
370
    15
100
AcDbCircle
 10
32.7364788182
 20
-42.9291154361
 30
0.0
 40
1.000000000000044
100
AcDbArc
 50
0.0
 51
34.105380652
  0
ARC
  5
34B
330
1F
100
AcDbEntity
  8
0
  6
Continuous
 62
     7
370
    15
100
AcDbCircle
 10
91.2779588053
 20
-60.6683085898
 30
0.0
 40
6.000000000000115
100
AcDbArc
 50
247.5734098229
 51
310.0790091886
  0
ARC
  5
34C
330
1F
100
AcDbEntity
  8
0
  6
Continuous
 62
     7
370
    15
100
AcDbCircle
 10
99.1067240454
 20
-69.7638256585
 30
0.0
 40
6.000000000000263
100
AcDbArc
 50
66.6455282476
 51
130.0790091886
  0
ARC
  5
34D
330
1F
100
AcDbEntity
  8
0
  6
Continuous
 62
     7
370
    15
100
AcDbCircle
 10
110.812339424
 20
-74.8182582447
 30
0.0
 40
5.999999999999862
100
AcDbArc
 50
22.7538395056
 51
66.6455282476
  0
ARC
  5
34E
330
1F
100
AcDbEntity
  8
0
  6
Continuous
 62
     7
370
    15
100
AcDbCircle
 10
112.1078194988
 20
-77.9070471548
 30
0.0
 40
6.000000000000059
100
AcDbArc
 50
339.9963903125
 51
22.7538395056
  0
ARC
  5
34F
330
1F
100
AcDbEntity
  8
0
  6
Continuous
 62
     7
370
    15
100
AcDbCircle
 10
108.7148822645
 20
-87.2272385676
 30
0.0
 40
6.0000000000003
100
AcDbArc
 50
297.2389411193
 51
339.9963903125
  0
ARC
  5
350
330
1F
100
AcDbEntity
  8
0
  6
Continuous
 62
     7
370
    15
100
AcDbCircle
 10
105.7368585201
 20
-88.7602943831
 30
0.0
 40
5.999999999999678
100
AcDbArc
 50
253.3472523774
 51
297.2389411193
  0
ARC
  5
351
330
1F
100
AcDbEntity
  8
0
  6
Continuous
 62
     7
370
    15
100
AcDbCircle
 10
93.5213705598
 20
-85.1064506465
 30
0.0
 40
6.00000000000012
100
AcDbArc
 50
189.9137714364
 51
253.3472523774
  0
ARC
  5
352
330
1F
100
AcDbEntity
  8
0
  6
Continuous
 62
     7
370
    15
100
AcDbCircle
 10
81.6774590136
 20
-87.0402953192
 30
0.0
 40
5.999999999999954
100
AcDbArc
 50
9.9137714364
 51
72.4193708021
  0
ARC
  5
353
330
1F
100
AcDbEntity
  8
0
  6
Continuous
 62
     7
370
    15
100
AcDbCircle
 10
-81.6774590136
 20
-87.0402953192
 30
0.0
 40
6.000000000000019
100
AcDbArc
 50
107.5806291979
 51
170.0862285636
  0
ARC
  5
354
330
1F
100
AcDbEntity
  8
0
  6
Continuous
 62
     7
370
    15
100
AcDbCircle
 10
-93.5213705598
 20
-85.1064506465
 30
0.0
 40
6.000000000000166
100
AcDbArc
 50
286.6527476226
 51
350.0862285636
  0
ARC
  5
355
330
1F
100
AcDbEntity
  8
0
  6
Continuous
 62
     7
370
    15
100
AcDbCircle
 10
-105.7368585201
 20
-88.7602943831
 30
0.0
 40
5.999999999999821
100
AcDbArc
 50
242.7610588807
 51
286.6527476226
  0
ARC
  5
356
330
1F
100
AcDbEntity
  8
0
  6
Continuous
 62
     7
370
    15
100
AcDbCircle
 10
-108.7148822645
 20
-87.2272385676
 30
0.0
 40
6.000000000000054
100
AcDbArc
 50
200.0036096875
 51
242.7610588807
  0
ARC
  5
357
330
1F
100
AcDbEntity
  8
0
  6
Continuous
 62
     7
370
    15
100
AcDbCircle
 10
-112.1078194988
 20
-77.9070471548
 30
0.0
 40
6.000000000000254
100
AcDbArc
 50
157.2461604944
 51
200.0036096875
  0
ARC
  5
358
330
1F
100
AcDbEntity
  8
0
  6
Continuous
 62
     7
370
    15
100
AcDbCircle
 10
-110.812339424
 20
-74.8182582447
 30
0.0
 40
5.999999999999704
100
AcDbArc
 50
113.3544717524
 51
157.2461604944
  0
ARC
  5
359
330
1F
100
AcDbEntity
  8
0
  6
Continuous
 62
     7
370
    15
100
AcDbCircle
 10
-99.1067240454
 20
-69.7638256585
 30
0.0
 40
5.999999999999857
100
AcDbArc
 50
49.9209908114
 51
113.3544717525
  0
ARC
  5
35A
330
1F
100
AcDbEntity
  8
0
  6
Continuous
 62
     7
370
    15
100
AcDbCircle
 10
-91.2779588053
 20
-60.6683085898
 30
0.0
 40
6.000000000000004
100
AcDbArc
 50
229.9209908114
 51
292.4265901771
  0
ARC
  5
35B
330
1F
100
AcDbEntity
  8
0
  6
Continuous
 62
     7
370
    15
100
AcDbCircle
 10
-32.7364788182
 20
-42.9291154361
 30
0.0
 40
0.9999999999998863
100
AcDbArc
 50
145.894619348
 51
180.0
  0
ARC
  5
35C
330
1F
100
AcDbEntity
  8
0
  6
Continuous
 62
     7
370
    15
100
AcDbCircle
 10
-26.9846344136
 20
-29.0851001199
 30
0.0
 40
2.000000000000047
100
AcDbArc
 50
325.894619348
 51
0.0
  0
ARC
  5
35D
330
1F
100
AcDbEntity
  8
0
  6
Continuous
 62
     7
370
    15
100
AcDbCircle
 10
-26.9846344136
 20
29.0851001199
 30
0.0
 40
1.999999999999972
100
AcDbArc
 50
0.0
 51
34.105380652
  0
ARC
  5
35E
330
1F
100
AcDbEntity
  8
0
  6
Continuous
 62
     7
370
    15
100
AcDbCircle
 10
-32.7364788182
 20
42.9291154361
 30
0.0
 40
1.000000000000046
100
AcDbArc
 50
180.0
 51
214.105380652
  0
ARC
  5
35F
330
1F
100
AcDbEntity
  8
0
  6
Continuous
 62
     7
370
    15
100
AcDbCircle
 10
-91.2779588053
 20
60.6683085898
 30
0.0
 40
6.000000000000113
100
AcDbArc
 50
67.5734098229
 51
130.0790091886
  0
ARC
  5
360
330
1F
100
AcDbEntity
  8
0
  6
Continuous
 62
     7
370
    15
100
AcDbCircle
 10
-99.1067240454
 20
69.7638256585
 30
0.0
 40
6.000000000000265
100
AcDbArc
 50
246.6455282476
 51
310.0790091886
  0
ARC
  5
361
330
1F
100
AcDbEntity
  8
0
  6
Continuous
 62
     7
370
    15
100
AcDbCircle
 10
-110.812339424
 20
74.8182582447
 30
0.0
 40
5.999999999999865
100
AcDbArc
 50
202.7538395056
 51
246.6455282476
  0
ARC
  5
362
330
1F
100
AcDbEntity
  8
0
  6
Continuous
 62
     7
370
    15
100
AcDbCircle
 10
-112.1078194988
 20
77.9070471548
 30
0.0
 40
6.000000000000056
100
AcDbArc
 50
159.9963903125
 51
202.7538395056
  0
ARC
  5
363
330
1F
100
AcDbEntity
  8
0
  6
Continuous
 62
     7
370
    15
100
AcDbCircle
 10
-108.7148822645
 20
87.2272385676
 30
0.0
 40
6.000000000000198
100
AcDbArc
 50
117.2389411193
 51
159.9963903125
  0
ARC
  5
364
330
1F
100
AcDbEntity
  8
0
  6
Continuous
 62
     7
370
    15
100
AcDbCircle
 10
-105.7368585201
 20
88.7602943831
 30
0.0
 40
5.999999999999665
100
AcDbArc
 50
73.3472523774
 51
117.2389411193
  0
ARC
  5
365
330
1F
100
AcDbEntity
  8
0
  6
Continuous
 62
     7
370
    15
100
AcDbCircle
 10
-93.5213705598
 20
85.1064506465
 30
0.0
 40
6.000000000000269
100
AcDbArc
 50
9.9137714364
 51
73.3472523774
  0
ARC
  5
366
330
1F
100
AcDbEntity
  8
0
  6
Continuous
 62
     7
370
    15
100
AcDbCircle
 10
-81.6774590136
 20
87.0402953192
 30
0.0
 40
5.999999999999954
100
AcDbArc
 50
189.9137714364
 51
252.4193708021
  0
ARC
  5
367
330
1F
100
AcDbEntity
  8
0
  6
Continuous
 62
     7
370
    15
100
AcDbCircle
 10
-110.6144931313
 20
76.6210584787
 30
0.0
 40
1.599999999999973
100
AcDbArc
 50
294.9963903125
 51
114.9963903125
  0
ARC
  5
368
330
1F
100
AcDbEntity
  8
0
  6
Continuous
 62
     7
370
    15
100
AcDbCircle
 10
-111.9739947472
 20
75.9872167347
 30
0.0
 40
1.600000000000009
100
AcDbArc
 50
114.9963903125
 51
294.9963903125
  0
ARC
  5
369
330
1F
100
AcDbEntity
  8
0
  6
Continuous
 62
     7
370
    15
100
AcDbCircle
 10
-106.744307148
 20
87.2522230647
 30
0.0
 40
1.599999999999975
100
AcDbArc
 50
204.9963903125
 51
24.9963903125
  0
ARC
  5
36A
330
1F
100
AcDbEntity
  8
0
  6
Continuous
 62
     7
370
    15
100
AcDbCircle
 10
-107.378148892
 20
88.6117246806
 30
0.0
 40
1.600000000000003
100
AcDbArc
 50
24.9963903125
 51
204.9963903125
  0
ARC
  5
36B
330
1F
100
AcDbEntity
  8
0
  6
Continuous
 62
     7
370
    15
100
AcDbCircle
 10
-99.3494868013
 20
71.3913708795
 30
0.0
 40
1.600000000000008
100
AcDbArc
 50
204.9963903125
 51
24.9963903125
  0
ARC
  5
36C
330
1F
100
AcDbEntity
  8
0
  6
Continuous
 62
     7
370
    15
100
AcDbCircle
 10
-99.9833285453
 20
72.7508724954
 30
0.0
 40
1.600000000000002
100
AcDbArc
 50
24.9963903125
 51
204.9963903125
  0
ARC
  5
36D
330
1F
100
AcDbEntity
  8
0
  6
Continuous
 62
     7
370
    15
100
AcDbCircle
 10
-96.113142562
 20
83.3820370814
 30
0.0
 40
1.599999999999976
100
AcDbArc
 50
114.9963903125
 51
294.9963903125
  0
ARC
  5
36E
330
1F
100
AcDbEntity
  8
0
  6
Continuous
 62
     7
370
    15
100
AcDbCircle
 10
-94.7536409461
 20
84.0158788254
 30
0.0
 40
1.600000000000015
100
AcDbArc
 50
294.9963903125
 51
114.9963903125
  0
ARC
  5
36F
330
1F
100
AcDbEntity
  8
0
  6
Continuous
 62
     7
370
    15
100
AcDbCircle
 10
94.7536409461
 20
84.0158788254
 30
0.0
 40
1.600000000000035
100
AcDbArc
 50
65.0036096875
 51
245.0036096875
  0
ARC
  5
370
330
1F
100
AcDbEntity
  8
0
  6
Continuous
 62
     7
370
    15
100
AcDbCircle
 10
96.113142562
 20
83.3820370814
 30
0.0
 40
1.59999999999999
100
AcDbArc
 50
245.0036096875
 51
65.0036096875
  0
ARC
  5
371
330
1F
100
AcDbEntity
  8
0
  6
Continuous
 62
     7
370
    15
100
AcDbCircle
 10
99.9833285453
 20
72.7508724954
 30
0.0
 40
1.599999999999991
100
AcDbArc
 50
335.0036096875
 51
155.0036096875
  0
ARC
  5
372
330
1F
100
AcDbEntity
  8
0
  6
Continuous
 62
     7
370
    15
100
AcDbCircle
 10
99.3494868013
 20
71.3913708795
 30
0.0
 40
1.600000000000022
100
AcDbArc
 50
155.0036096875
 51
335.0036096875
  0
ARC
  5
373
330
1F
100
AcDbEntity
  8
0
  6
Continuous
 62
     7
370
    15
100
AcDbCircle
 10
111.9739947472
 20
75.9872167347
 30
0.0
 40
1.600000000000029
100
AcDbArc
 50
245.0036096875
 51
65.0036096875
  0
ARC
  5
374
330
1F
100
AcDbEntity
  8
0
  6
Continuous
 62
     7
370
    15
100
AcDbCircle
 10
110.6144931313
 20
76.6210584787
 30
0.0
 40
1.599999999999991
100
AcDbArc
 50
65.0036096875
 51
245.0036096875
  0
ARC
  5
375
330
1F
100
AcDbEntity
  8
0
  6
Continuous
 62
     7
370
    15
100
AcDbCircle
 10
106.744307148
 20
87.2522230647
 30
0.0
 40
1.599999999999989
100
AcDbArc
 50
155.0036096875
 51
335.0036096875
  0
ARC
  5
376
330
1F
100
AcDbEntity
  8
0
  6
Continuous
 62
     7
370
    15
100
AcDbCircle
 10
107.378148892
 20
88.6117246806
 30
0.0
 40
1.600000000000022
100
AcDbArc
 50
335.0036096875
 51
155.0036096875
  0
ARC
  5
377
330
1F
100
AcDbEntity
  8
0
  6
Continuous
 62
     7
370
    15
100
AcDbCircle
 10
107.378148892
 20
-88.6117246806
 30
0.0
 40
1.600000000000028
100
AcDbArc
 50
204.9963903125
 51
24.9963903125
  0
ARC
  5
378
330
1F
100
AcDbEntity
  8
0
  6
Continuous
 62
     7
370
    15
100
AcDbCircle
 10
106.744307148
 20
-87.2522230647
 30
0.0
 40
1.599999999999997
100
AcDbArc
 50
24.9963903125
 51
204.9963903125
  0
ARC
  5
379
330
1F
100
AcDbEntity
  8
0
  6
Continuous
 62
     7
370
    15
100
AcDbCircle
 10
110.6144931313
 20
-76.6210584787
 30
0.0
 40
1.599999999999978
100
AcDbArc
 50
114.9963903125
 51
294.9963903125
  0
ARC
  5
37A
330
1F
100
AcDbEntity
  8
0
  6
Continuous
 62
     7
370
    15
100
AcDbCircle
 10
111.9739947472
 20
-75.9872167347
 30
0.0
 40
1.60000000000001
100
AcDbArc
 50
294.9963903125
 51
114.9963903125
  0
ARC
  5
37B
330
1F
100
AcDbEntity
  8
0
  6
Continuous
 62
     7
370
    15
100
AcDbCircle
 10
99.3494868013
 20
-71.3913708795
 30
0.0
 40
1.600000000000009
100
AcDbArc
 50
24.9963903125
 51
204.9963903125
  0
ARC
  5
37C
330
1F
100
AcDbEntity
  8
0
  6
Continuous
 62
     7
370
    15
100
AcDbCircle
 10
99.9833285453
 20
-72.7508724954
 30
0.0
 40
1.600000000000002
100
AcDbArc
 50
204.9963903125
 51
24.9963903125
  0
ARC
  5
37D
330
1F
100
AcDbEntity
  8
0
  6
Continuous
 62
     7
370
    15
100
AcDbCircle
 10
96.113142562
 20
-83.3820370814
 30
0.0
 40
1.599999999999972
100
AcDbArc
 50
294.9963903125
 51
114.9963903125
  0
ARC
  5
37E
330
1F
100
AcDbEntity
  8
0
  6
Continuous
 62
     7
370
    15
100
AcDbCircle
 10
94.7536409461
 20
-84.0158788254
 30
0.0
 40
1.600000000000017
100
AcDbArc
 50
114.9963903125
 51
294.9963903125
  0
ARC
  5
37F
330
1F
100
AcDbEntity
  8
0
  6
Continuous
 62
     7
370
    15
100
AcDbCircle
 10
-94.7536409461
 20
-84.0158788254
 30
0.0
 40
1.600000000000009
100
AcDbArc
 50
245.0036096875
 51
65.0036096875
  0
ARC
  5
380
330
1F
100
AcDbEntity
  8
0
  6
Continuous
 62
     7
370
    15
100
AcDbCircle
 10
-96.113142562
 20
-83.3820370814
 30
0.0
 40
1.599999999999985
100
AcDbArc
 50
65.0036096875
 51
245.0036096875
  0
ARC
  5
381
330
1F
100
AcDbEntity
  8
0
  6
Continuous
 62
     7
370
    15
100
AcDbCircle
 10
-99.9833285453
 20
-72.7508724954
 30
0.0
 40
1.59999999999999
100
AcDbArc
 50
155.0036096875
 51
335.0036096875
  0
ARC
  5
382
330
1F
100
AcDbEntity
  8
0
  6
Continuous
 62
     7
370
    15
100
AcDbCircle
 10
-99.3494868013
 20
-71.3913708795
 30
0.0
 40
1.600000000000016
100
AcDbArc
 50
335.0036096875
 51
155.0036096875
  0
ARC
  5
383
330
1F
100
AcDbEntity
  8
0
  6
Continuous
 62
     7
370
    15
100
AcDbCircle
 10
-111.9739947472
 20
-75.9872167347
 30
0.0
 40
1.599999999999992
100
AcDbArc
 50
65.0036096875
 51
245.0036096875
  0
ARC
  5
384
330
1F
100
AcDbEntity
  8
0
  6
Continuous
 62
     7
370
    15
100
AcDbCircle
 10
-110.6144931313
 20
-76.6210584787
 30
0.0
 40
1.599999999999985
100
AcDbArc
 50
245.0036096875
 51
65.0036096875
  0
ARC
  5
385
330
1F
100
AcDbEntity
  8
0
  6
Continuous
 62
     7
370
    15
100
AcDbCircle
 10
-106.744307148
 20
-87.2522230647
 30
0.0
 40
1.599999999999992
100
AcDbArc
 50
335.0036096875
 51
155.0036096875
  0
ARC
  5
386
330
1F
100
AcDbEntity
  8
0
  6
Continuous
 62
     7
370
    15
100
AcDbCircle
 10
-107.378148892
 20
-88.6117246806
 30
0.0
 40
1.600000000000023
100
AcDbArc
 50
155.0036096875
 51
335.0036096875
  0
ENDSEC
  0
SECTION
  2
OBJECTS
  0
DICTIONARY
  5
C
330
0
100
AcDbDictionary
281
     1
  3
ACAD_GROUP
350
D
  3
ACAD_LAYOUT
350
1A
  3
ACAD_MLINESTYLE
350
17
  3
ACAD_PLOTSETTINGS
350
19
  3
ACAD_PLOTSTYLENAME
350
E
  3
ACAD_SCALELIST
350
47
  0
DICTIONARY
  5
D
102
{ACAD_REACTORS
330
C
102
}
330
C
100
AcDbDictionary
281
     1
  0
DICTIONARY
  5
1A
102
{ACAD_REACTORS
330
C
102
}
330
C
100
AcDbDictionary
281
     1
  3
Layout1
350
1E
  3
Layout2
350
26
  3
Model
350
22
  0
DICTIONARY
  5
17
102
{ACAD_REACTORS
330
C
102
}
330
C
100
AcDbDictionary
281
     1
  3
Standard
350
18
  0
DICTIONARY
  5
19
102
{ACAD_REACTORS
330
C
102
}
330
C
100
AcDbDictionary
281
     1
  0
ACDBDICTIONARYWDFLT
  5
E
102
{ACAD_REACTORS
330
C
102
}
330
C
100
AcDbDictionary
281
     1
  3
Normal
350
F
100
AcDbDictionaryWithDefault
340
F
  0
DICTIONARY
  5
47
102
{ACAD_REACTORS
330
C
102
}
330
C
100
AcDbDictionary
281
     1
  3
A0
350
48
  3
A1
350
49
  3
A2
350
4A
  3
A3
350
4B
  3
A4
350
4C
  3
A5
350
4D
  3
A6
350
4E
  3
A7
350
4F
  3
A8
350
50
  3
A9
350
51
  3
B0
350
52
  3
B1
350
53
  3
B2
350
54
  3
B3
350
55
  3
B4
350
56
  3
B5
350
57
  3
B6
350
58
  3
B7
350
59
  3
B8
350
5A
  3
B9
350
5B
  3
C0
350
5C
  3
C1
350
5D
  3
C2
350
5E
  3
C3
350
5F
  3
C4
350
60
  3
C5
350
61
  3
C6
350
62
  3
C7
350
63
  3
C8
350
64
  3
C9
350
65
  3
D0
350
66
  3
D1
350
67
  3
D2
350
68
  0
LAYOUT
  5
1E
102
{ACAD_REACTORS
330
1A
102
}
330
1A
100
AcDbPlotSettings
  1

  2
none_device
  4

  6

 40
0.0
 41
0.0
 42
0.0
 43
0.0
 44
0.0
 45
0.0
 46
0.0
 47
0.0
 48
0.0
 49
0.0
140
0.0
141
0.0
142
1.0
143
1.0
 70
   688
 72
     1
 73
     0
 74
     5
  7

 75
    16
147
1.0
148
0.0
149
0.0
100
AcDbLayout
  1
Layout1
 70
     1
 71
     1
 10
0.0
 20
0.0
 11
420.0
 21
297.0
 12
0.0
 22
0.0
 32
0.0
 14
1.0000000000E+20
 24
1.0000000000E+20
 34
1.0000000000E+20
 15
-1.0000000000E+20
 25
-1.0000000000E+20
 35
-1.0000000000E+20
146
0.0
 13
0.0
 23
0.0
 33
0.0
 16
1.0
 26
0.0
 36
0.0
 17
0.0
 27
1.0
 37
0.0
 76
     0
330
1B
  0
LAYOUT
  5
26
102
{ACAD_REACTORS
330
1A
102
}
330
1A
100
AcDbPlotSettings
  1

  2
none_device
  4

  6

 40
0.0
 41
0.0
 42
0.0
 43
0.0
 44
0.0
 45
0.0
 46
0.0
 47
0.0
 48
0.0
 49
0.0
140
0.0
141
0.0
142
1.0
143
1.0
 70
   688
 72
     1
 73
     0
 74
     5
  7

 75
    16
147
1.0
148
0.0
149
0.0
100
AcDbLayout
  1
Layout2
 70
     1
 71
     2
 10
0.0
 20
0.0
 11
0.0
 21
0.0
 12
0.0
 22
0.0
 32
0.0
 14
0.0
 24
0.0
 34
0.0
 15
0.0
 25
0.0
 35
0.0
146
0.0
 13
0.0
 23
0.0
 33
0.0
 16
1.0
 26
0.0
 36
0.0
 17
0.0
 27
1.0
 37
0.0
 76
     0
330
23
  0
LAYOUT
  5
22
102
{ACAD_REACTORS
330
1A
102
}
330
1A
100
AcDbPlotSettings
  1

  2
none_device
  4
ANSI_A_(11.00_x_8.50_Inches)
  6

 40
6.35
 41
19.05
 42
6.35000508
 43
19.05000254
 44
279.4
 45
215.9
 46
133.34999746
 47
88.89999873
 48
0.0
 49
0.0
140
0.0
141
0.0
142
0.0444015083
143
1.0
 70
  1696
 72
     0
 73
     0
 74
     0
  7

 75
     0
147
0.0179189148
148
-1300.4909072572
149
0.0
100
AcDbLayout
  1
Model
 70
     1
 71
     0
 10
0.0
 20
0.0
 11
420.0
 21
297.0
 12
0.0
 22
0.0
 32
0.0
 14
-118.1078194988
 24
-94.7602943831
 34
0.0
 15
118.1078194988
 25
94.7602943831
 35
0.0
146
0.0
 13
0.0
 23
0.0
 33
0.0
 16
1.0
 26
0.0
 36
0.0
 17
0.0
 27
1.0
 37
0.0
 76
     0
330
1F
331
29
  0
MLINESTYLE
  5
18
102
{ACAD_REACTORS
330
17
102
}
330
17
100
AcDbMlineStyle
  2
Standard
 70
     0
  3

 62
   256
 51
90.0
 52
90.0
 71
     2
 49
0.5
 62
   256
  6
BYLAYER
 49
-0.5
 62
   256
  6
BYLAYER
  0
ACDBPLACEHOLDER
  5
F
102
{ACAD_REACTORS
330
E
102
}
330
E
  0
SCALE
  5
48
102
{ACAD_REACTORS
330
47
102
}
330
47
100
AcDbScale
 70
     0
300
1:1
140
1.0
141
1.0
290
     1
  0
SCALE
  5
49
102
{ACAD_REACTORS
330
47
102
}
330
47
100
AcDbScale
 70
     0
300
1:2
140
1.0
141
2.0
290
     0
  0
SCALE
  5
4A
102
{ACAD_REACTORS
330
47
102
}
330
47
100
AcDbScale
 70
     0
300
1:4
140
1.0
141
4.0
290
     0
  0
SCALE
  5
4B
102
{ACAD_REACTORS
330
47
102
}
330
47
100
AcDbScale
 70
     0
300
1:5
140
1.0
141
5.0
290
     0
  0
SCALE
  5
4C
102
{ACAD_REACTORS
330
47
102
}
330
47
100
AcDbScale
 70
     0
300
1:8
140
1.0
141
8.0
290
     0
  0
SCALE
  5
4D
102
{ACAD_REACTORS
330
47
102
}
330
47
100
AcDbScale
 70
     0
300
1:10
140
1.0
141
10.0
290
     0
  0
SCALE
  5
4E
102
{ACAD_REACTORS
330
47
102
}
330
47
100
AcDbScale
 70
     0
300
1:16
140
1.0
141
16.0
290
     0
  0
SCALE
  5
4F
102
{ACAD_REACTORS
330
47
102
}
330
47
100
AcDbScale
 70
     0
300
1:20
140
1.0
141
20.0
290
     0
  0
SCALE
  5
50
102
{ACAD_REACTORS
330
47
102
}
330
47
100
AcDbScale
 70
     0
300
1:30
140
1.0
141
30.0
290
     0
  0
SCALE
  5
51
102
{ACAD_REACTORS
330
47
102
}
330
47
100
AcDbScale
 70
     0
300
1:40
140
1.0
141
40.0
290
     0
  0
SCALE
  5
52
102
{ACAD_REACTORS
330
47
102
}
330
47
100
AcDbScale
 70
     0
300
1:50
140
1.0
141
50.0
290
     0
  0
SCALE
  5
53
102
{ACAD_REACTORS
330
47
102
}
330
47
100
AcDbScale
 70
     0
300
1:100
140
1.0
141
100.0
290
     0
  0
SCALE
  5
54
102
{ACAD_REACTORS
330
47
102
}
330
47
100
AcDbScale
 70
     0
300
2:1
140
2.0
141
1.0
290
     0
  0
SCALE
  5
55
102
{ACAD_REACTORS
330
47
102
}
330
47
100
AcDbScale
 70
     0
300
4:1
140
4.0
141
1.0
290
     0
  0
SCALE
  5
56
102
{ACAD_REACTORS
330
47
102
}
330
47
100
AcDbScale
 70
     0
300
8:1
140
8.0
141
1.0
290
     0
  0
SCALE
  5
57
102
{ACAD_REACTORS
330
47
102
}
330
47
100
AcDbScale
 70
     0
300
10:1
140
10.0
141
1.0
290
     0
  0
SCALE
  5
58
102
{ACAD_REACTORS
330
47
102
}
330
47
100
AcDbScale
 70
     0
300
100:1
140
100.0
141
1.0
290
     0
  0
SCALE
  5
59
102
{ACAD_REACTORS
330
47
102
}
330
47
100
AcDbScale
 70
     0
300
1/128" = 1'-0"
140
0.0078125
141
12.0
290
     0
  0
SCALE
  5
5A
102
{ACAD_REACTORS
330
47
102
}
330
47
100
AcDbScale
 70
     0
300
1/64" = 1'-0"
140
0.015625
141
12.0
290
     0
  0
SCALE
  5
5B
102
{ACAD_REACTORS
330
47
102
}
330
47
100
AcDbScale
 70
     0
300
1/32" = 1'-0"
140
0.03125
141
12.0
290
     0
  0
SCALE
  5
5C
102
{ACAD_REACTORS
330
47
102
}
330
47
100
AcDbScale
 70
     0
300
1/16" = 1'-0"
140
0.0625
141
12.0
290
     0
  0
SCALE
  5
5D
102
{ACAD_REACTORS
330
47
102
}
330
47
100
AcDbScale
 70
     0
300
3/32" = 1'-0"
140
0.09375
141
12.0
290
     0
  0
SCALE
  5
5E
102
{ACAD_REACTORS
330
47
102
}
330
47
100
AcDbScale
 70
     0
300
1/8" = 1'-0"
140
0.125
141
12.0
290
     0
  0
SCALE
  5
5F
102
{ACAD_REACTORS
330
47
102
}
330
47
100
AcDbScale
 70
     0
300
3/16" = 1'-0"
140
0.1875
141
12.0
290
     0
  0
SCALE
  5
60
102
{ACAD_REACTORS
330
47
102
}
330
47
100
AcDbScale
 70
     0
300
1/4" = 1'-0"
140
0.25
141
12.0
290
     0
  0
SCALE
  5
61
102
{ACAD_REACTORS
330
47
102
}
330
47
100
AcDbScale
 70
     0
300
3/8" = 1'-0"
140
0.375
141
12.0
290
     0
  0
SCALE
  5
62
102
{ACAD_REACTORS
330
47
102
}
330
47
100
AcDbScale
 70
     0
300
1/2" = 1'-0"
140
0.5
141
12.0
290
     0
  0
SCALE
  5
63
102
{ACAD_REACTORS
330
47
102
}
330
47
100
AcDbScale
 70
     0
300
3/4" = 1'-0"
140
0.75
141
12.0
290
     0
  0
SCALE
  5
64
102
{ACAD_REACTORS
330
47
102
}
330
47
100
AcDbScale
 70
     0
300
1" = 1'-0"
140
1.0
141
12.0
290
     0
  0
SCALE
  5
65
102
{ACAD_REACTORS
330
47
102
}
330
47
100
AcDbScale
 70
     0
300
1-1/2" = 1'-0"
140
1.5
141
12.0
290
     0
  0
SCALE
  5
66
102
{ACAD_REACTORS
330
47
102
}
330
47
100
AcDbScale
 70
     0
300
3" = 1'-0"
140
3.0
141
12.0
290
     0
  0
SCALE
  5
67
102
{ACAD_REACTORS
330
47
102
}
330
47
100
AcDbScale
 70
     0
300
6" = 1'-0"
140
6.0
141
12.0
290
     0
  0
SCALE
  5
68
102
{ACAD_REACTORS
330
47
102
}
330
47
100
AcDbScale
 70
     0
300
1'-0" = 1'-0"
140
12.0
141
12.0
290
     0
  0
ENDSEC
  0
EOF
